<?xml version="1.0" encoding="iso-8859-1"?>
<!-- Generator: Adobe Illustrator 16.0.0, SVG Export Plug-In . SVG Version: 6.00 Build 0)  -->
<!DOCTYPE svg PUBLIC "-//W3C//DTD SVG 1.1//EN" "http://www.w3.org/Graphics/SVG/1.1/DTD/svg11.dtd">
<svg xmlns="http://www.w3.org/2000/svg" xmlns:xlink="http://www.w3.org/1999/xlink" version="1.1" id="Capa_1" x="0px" y="0px" width="512px" height="512px" viewBox="0 0 478.125 478.125" style="enable-background:new 0 0 478.125 478.125;" xml:space="preserve">
<g>
	<g>
		<path d="M415.013,399.713c36.337-40.163,61.2-93.713,63.112-153H344.25C346.162,307.912,372.938,363.375,415.013,399.713z" fill="#FFFFFF"/>
		<path d="M401.625,63.112c-40.162-38.25-93.713-61.2-153-63.112v229.5h76.5C327.037,164.475,355.725,105.188,401.625,63.112z" fill="#FFFFFF"/>
		<path d="M63.112,76.5C26.775,116.663,1.913,170.212,0,229.5h133.875C130.05,168.3,103.275,114.75,63.112,76.5z" fill="#FFFFFF"/>
		<path d="M478.125,229.5c-1.912-59.288-24.862-110.925-63.112-153c-42.075,38.25-68.851,91.8-70.763,153H478.125z" fill="#FFFFFF"/>
		<path d="M0,248.625c1.913,51.638,21.038,99.45,49.725,135.787c3.825,5.738,13.387,15.301,13.387,15.301    c42.075-38.25,68.85-91.801,70.763-153H0V248.625z" fill="#FFFFFF"/>
		<path d="M248.625,248.625v229.5c59.287-1.912,112.838-26.775,153-63.112c-43.987-42.075-74.588-99.45-76.5-166.388H248.625z" fill="#FFFFFF"/>
		<path d="M153,229.5h76.5V0c-59.288,1.913-112.837,26.775-153,63.112C120.487,105.188,149.175,164.475,153,229.5z" fill="#FFFFFF"/>
		<path d="M76.5,415.013c40.163,38.25,93.712,61.2,153,63.112v-229.5H153C149.175,313.65,120.487,372.938,76.5,415.013z" fill="#FFFFFF"/>
	</g>
</g>
<g>
</g>
<g>
</g>
<g>
</g>
<g>
</g>
<g>
</g>
<g>
</g>
<g>
</g>
<g>
</g>
<g>
</g>
<g>
</g>
<g>
</g>
<g>
</g>
<g>
</g>
<g>
</g>
<g>
</g>
</svg>
