<?xml version="1.0" encoding="iso-8859-1"?>
<!-- Generator: Adobe Illustrator 16.0.0, SVG Export Plug-In . SVG Version: 6.00 Build 0)  -->
<!DOCTYPE svg PUBLIC "-//W3C//DTD SVG 1.1//EN" "http://www.w3.org/Graphics/SVG/1.1/DTD/svg11.dtd">
<svg xmlns="http://www.w3.org/2000/svg" xmlns:xlink="http://www.w3.org/1999/xlink" version="1.1" id="Capa_1" x="0px" y="0px" width="512px" height="512px" viewBox="0 0 401.625 401.625" style="enable-background:new 0 0 401.625 401.625;" xml:space="preserve">
<g>
	<path d="M0,9.562v286.875h114.75l19.125,61.2c3.825,19.125,32.513,34.425,66.938,34.425s63.112-15.3,66.938-34.425l0,0l19.125-61.2   h114.75V9.562H0z M200.812,258.188c-47.812,0-86.062-13.388-86.062-28.688s38.25-28.688,86.062-28.688s86.062,13.388,86.062,28.688   S248.625,258.188,200.812,258.188z M97.538,219.938H76.5V86.062h248.625v133.875h-21.037c-9.562-21.038-51.638-38.25-103.275-38.25   S107.1,198.9,97.538,219.938z M382.5,277.312h-89.888l11.476-36.338c0,0,0,0,0-1.912h40.162V66.938H57.375v172.125h40.163   c0,0,0,0,0,1.912l11.475,36.338H19.125V28.688H382.5V277.312z" fill="#FFFFFF"/>
</g>
<g>
</g>
<g>
</g>
<g>
</g>
<g>
</g>
<g>
</g>
<g>
</g>
<g>
</g>
<g>
</g>
<g>
</g>
<g>
</g>
<g>
</g>
<g>
</g>
<g>
</g>
<g>
</g>
<g>
</g>
</svg>
