<?xml version="1.0" encoding="iso-8859-1"?>
<!-- Generator: Adobe Illustrator 16.0.0, SVG Export Plug-In . SVG Version: 6.00 Build 0)  -->
<!DOCTYPE svg PUBLIC "-//W3C//DTD SVG 1.1//EN" "http://www.w3.org/Graphics/SVG/1.1/DTD/svg11.dtd">
<svg xmlns="http://www.w3.org/2000/svg" xmlns:xlink="http://www.w3.org/1999/xlink" version="1.1" id="Capa_1" x="0px" y="0px" width="512px" height="512px" viewBox="0 0 554.625 554.625" style="enable-background:new 0 0 554.625 554.625;" xml:space="preserve">
<g>
	<g>
		<polygon points="153,172.125 76.5,497.25 133.875,554.625 189.337,506.812 191.25,485.775 227.587,172.125   " fill="#FFFFFF"/>
		<path d="M401.625,124.312C401.625,55.462,346.162,0,277.312,0C208.462,0,153,55.462,153,124.312V153h248.625V124.312z" fill="#FFFFFF"/>
		<polygon points="401.625,172.125 365.287,172.125 327.037,172.125 363.375,485.775 367.2,506.812 420.75,554.625 478.125,497.25       " fill="#FFFFFF"/>
		<polygon points="307.912,172.125 277.312,172.125 246.713,172.125 210.375,489.6 208.462,502.987 277.312,554.625     346.162,502.987 344.25,489.6   " fill="#FFFFFF"/>
	</g>
</g>
<g>
</g>
<g>
</g>
<g>
</g>
<g>
</g>
<g>
</g>
<g>
</g>
<g>
</g>
<g>
</g>
<g>
</g>
<g>
</g>
<g>
</g>
<g>
</g>
<g>
</g>
<g>
</g>
<g>
</g>
</svg>
