<?xml version="1.0" standalone="no"?>
<!DOCTYPE svg PUBLIC "-//W3C//DTD SVG 20010904//EN"
 "http://www.w3.org/TR/2001/REC-SVG-20010904/DTD/svg10.dtd">
<svg version="1.0" xmlns="http://www.w3.org/2000/svg"
 width="640.000000pt" height="360.000000pt" viewBox="0 0 640.000000 360.000000"
 preserveAspectRatio="xMidYMid meet">
<metadata>
Created by potrace 1.14, written by Peter Selinger 2001-2017
</metadata>
<g transform="translate(0.000000,360.000000) scale(0.100000,-0.100000)"
fill="#000000" stroke="none">
<path d="M10 3584 c0 -8 5 -25 11 -36 8 -16 8 -19 -1 -13 -9 6 -9 2 0 -14 6
-12 16 -18 22 -15 6 4 8 3 4 -4 -9 -15 11 -62 28 -62 8 0 16 -3 18 -7 2 -5 20
-21 41 -36 21 -16 42 -40 47 -53 5 -13 13 -24 17 -25 72 -6 157 -44 149 -65
-3 -8 -1 -14 5 -14 21 0 -4 -43 -51 -89 -32 -30 -48 -53 -46 -66 3 -18 -21
-62 -50 -92 -8 -8 -11 -36 -10 -72 2 -43 -1 -58 -9 -54 -7 2 -21 -6 -31 -19
-17 -21 -26 -23 -73 -20 -77 6 -81 -2 -81 -164 0 -154 -24 -133 186 -164 76
-11 164 -24 194 -29 30 -5 85 -13 122 -16 37 -4 70 -11 73 -16 4 -5 0 -9 -7
-9 -22 0 -321 40 -353 47 -16 3 -41 7 -55 9 -14 1 -55 6 -93 10 l-67 7 2 -824
3 -824 85 -1 c47 0 93 4 103 10 13 8 20 7 27 -4 13 -21 12 -33 -2 -24 -7 4 -8
3 -4 -5 6 -9 11 -9 22 0 12 9 12 15 2 27 -11 13 -10 14 8 4 12 -6 24 -9 26 -6
3 2 11 -2 17 -10 7 -8 19 -12 27 -9 8 3 23 -2 33 -11 10 -9 21 -13 24 -9 4 3
-2 12 -13 20 -22 15 -27 33 -9 33 5 0 7 -4 4 -10 -4 -6 5 -10 19 -10 14 0 26
4 26 8 0 5 10 8 23 6 12 -1 31 -3 42 -3 15 -1 16 -4 7 -13 -7 -7 -12 -17 -12
-22 0 -6 8 0 18 14 9 14 26 26 37 28 20 3 20 2 1 -13 -17 -13 -17 -15 -3 -15
9 0 20 6 24 13 9 13 14 14 165 19 61 2 102 0 95 -5 -7 -5 -3 -6 10 -2 45 13
74 15 69 7 -6 -10 177 -8 193 3 6 3 11 2 11 -4 0 -6 7 -8 15 -5 8 4 15 1 15
-6 0 -7 6 -5 16 4 14 14 34 14 34 0 0 -3 -5 -2 -12 2 -7 4 -8 3 -4 -4 4 -6 13
-9 21 -6 8 4 12 11 9 16 -4 6 3 5 14 -1 12 -6 25 -10 29 -9 4 1 19 -4 32 -11
14 -8 21 -9 17 -2 -4 6 -2 11 4 11 6 0 8 5 5 11 -5 7 10 9 42 7 39 -2 49 -6
49 -20 0 -22 -10 -23 -30 -2 -9 8 -24 14 -33 12 -23 -4 -29 -28 -6 -28 15 0
16 2 3 11 -12 8 -12 10 5 7 29 -5 32 -38 3 -39 -13 -1 -5 -5 17 -8 45 -8 69
-1 39 10 -19 7 -18 8 1 9 11 2 24 2 29 1 5 -1 3 5 -4 14 -18 22 -11 25 63 29
48 3 69 0 78 -10 12 -14 3 -19 -28 -15 -16 2 -26 -16 -13 -24 5 -3 10 -3 10 2
0 4 39 8 86 8 60 -1 91 4 100 13 8 7 14 9 14 3 0 -6 11 -13 25 -17 14 -3 22
-10 19 -15 -3 -6 -15 -7 -27 -4 -18 5 -19 4 -6 -4 19 -12 56 -4 63 14 3 9 0
12 -8 9 -7 -3 -18 1 -24 8 -8 11 -3 14 26 15 20 1 51 4 67 8 20 4 26 4 16 -3
-11 -8 -11 -11 0 -16 9 -3 6 -5 -6 -5 -33 2 -45 -1 -45 -8 0 -5 10 -8 23 -9
12 0 30 -4 40 -8 13 -6 16 -4 12 6 -3 8 2 21 11 29 12 9 15 10 10 2 -5 -9 -1
-13 13 -13 11 0 23 5 27 11 4 8 9 7 15 -2 5 -9 9 -9 9 -3 0 7 11 14 25 16 15
3 22 1 18 -5 -4 -6 2 -8 15 -5 12 4 20 2 16 -3 -3 -5 4 -9 15 -9 11 0 23 -5
26 -11 4 -6 14 -7 24 -4 22 9 42 13 70 14 18 1 22 5 17 19 -5 15 -4 15 6 2 8
-9 28 -14 52 -13 21 0 34 -2 28 -6 -12 -7 -3 -25 15 -28 7 -2 10 3 7 11 -3 8
0 17 7 22 8 5 10 3 4 -7 -7 -11 -6 -12 6 -3 8 6 28 11 44 10 23 -1 29 -5 27
-19 -4 -21 1 -21 40 -1 25 13 36 14 50 5 11 -7 18 -7 18 -1 0 5 7 10 15 10 8
0 15 -4 15 -10 0 -5 7 -7 16 -3 10 4 12 8 5 12 -8 5 -6 13 5 27 13 16 15 16
10 2 -6 -21 -5 -22 26 -5 14 7 48 11 80 9 47 -3 56 -6 51 -20 -4 -9 -8 -11
-10 -5 -3 7 -10 10 -16 7 -7 -2 -36 -6 -65 -7 -60 -4 -65 -7 -46 -25 8 -7 14
-9 14 -3 0 5 7 11 14 14 10 4 13 1 10 -7 -3 -7 2 -13 10 -13 8 0 13 4 10 9 -5
7 41 13 73 9 6 -1 14 6 17 16 5 16 20 18 130 18 73 1 122 -3 119 -8 -3 -5 0
-7 8 -5 8 3 13 11 12 17 -4 14 14 15 22 1 3 -5 2 -10 -3 -10 -6 0 -13 -7 -16
-16 -5 -14 -4 -15 9 -4 8 7 51 14 95 17 64 3 80 1 80 -10 0 -10 8 -13 25 -9
14 2 22 8 19 13 -3 5 2 9 10 9 9 0 16 5 16 10 0 6 5 10 10 10 7 0 7 -6 0 -20
-7 -14 -7 -20 0 -20 5 0 10 5 10 11 0 7 13 10 34 7 19 -2 33 -1 31 3 -3 3 17
6 43 5 45 -1 48 -3 45 -26 -1 -14 0 -17 3 -7 3 9 10 17 15 17 6 0 7 5 4 10 -7
11 13 13 67 4 21 -4 35 -11 32 -15 -3 -5 -11 -7 -17 -3 -7 3 -3 -2 7 -10 22
-18 32 -19 61 -5 17 8 15 8 -7 4 -22 -4 -26 -2 -22 10 4 8 15 15 26 15 10 0
16 5 13 10 -4 6 5 10 20 10 16 0 24 -4 19 -11 -4 -8 -1 -8 12 -1 18 9 45 8
119 -4 17 -3 48 -5 70 -5 21 0 45 -5 53 -11 10 -9 12 -8 10 3 -2 8 -7 17 -13
21 -5 4 0 6 12 5 12 0 19 -5 17 -9 -3 -4 2 -8 11 -8 9 0 13 -4 10 -10 -3 -5
-1 -10 4 -10 6 0 11 5 11 10 0 6 12 11 28 11 24 2 23 2 -8 9 l-35 7 30 2 c17
0 36 -4 42 -10 13 -13 175 -21 167 -8 -3 6 -15 7 -26 3 -14 -4 -18 -3 -13 6 7
12 61 5 81 -11 6 -5 14 -5 18 -1 12 11 186 9 186 -3 0 -6 -32 -10 -75 -10 -41
0 -75 -3 -75 -6 0 -4 -21 -4 -47 -1 -27 2 -45 1 -41 -3 8 -8 189 -14 183 -5
-2 3 12 4 31 2 22 -3 34 0 34 8 0 7 5 6 15 -4 10 -10 26 -13 50 -9 20 3 35 1
35 -4 0 -5 7 -10 15 -10 11 0 12 4 4 14 -14 17 -5 17 13 1 8 -7 25 -19 38 -26
l25 -13 -25 22 -25 22 44 -6 c29 -4 40 -2 30 4 -12 7 -11 9 4 9 9 0 17 -5 17
-11 0 -8 4 -8 13 -1 8 7 18 7 27 2 8 -5 22 -4 33 1 10 6 23 8 30 5 7 -2 4 -5
-6 -5 -10 -1 -15 -5 -12 -11 10 -15 23 -12 29 8 6 17 56 28 56 11 0 -5 5 -9
11 -9 5 0 8 4 5 9 -3 4 16 8 42 7 31 -1 51 4 60 14 10 13 11 13 6 -2 -4 -12 0
-17 13 -16 20 1 85 -11 91 -16 2 -2 27 5 55 15 53 20 217 41 217 28 0 -4 23
-6 50 -5 29 2 50 -1 50 -7 0 -6 3 -7 7 -4 3 4 12 2 19 -4 17 -14 84 -17 84 -4
0 5 4 4 8 -3 5 -7 26 -11 51 -10 37 1 40 3 23 12 -17 9 -18 13 -6 24 7 6 20
12 29 12 12 0 13 -4 6 -18 -13 -25 0 -43 27 -37 28 5 54 -4 46 -16 -3 -5 0 -9
5 -9 14 0 14 25 1 49 -8 15 -5 18 13 17 12 -1 22 -8 22 -16 0 -8 10 -16 23
-18 12 -2 20 -7 18 -11 -3 -4 12 -7 32 -8 28 0 30 1 9 4 -30 5 -35 33 -7 40
13 4 13 3 0 -6 -13 -9 -13 -11 0 -11 9 0 22 6 29 13 11 10 12 9 5 -3 -7 -12
-4 -12 17 1 16 11 38 15 60 12 64 -8 89 -9 89 -3 0 3 18 7 41 9 31 1 39 -1 33
-11 -6 -10 -5 -10 7 -2 9 7 56 11 126 10 61 -1 110 1 107 6 -3 4 2 5 10 2 14
-6 16 76 16 800 l0 807 -47 -2 c-27 -1 -77 -5 -113 -10 -36 -4 -128 -15 -205
-24 -77 -9 -152 -18 -167 -20 -16 -3 -28 -1 -28 4 0 4 46 13 103 20 56 7 138
18 182 26 44 7 100 16 125 19 25 4 69 14 99 24 l54 16 -6 82 c-3 45 -13 98
-21 118 -8 20 -13 36 -10 36 11 0 -38 55 -49 55 -7 1 -11 6 -10 13 2 6 -4 9
-12 6 -10 -4 -15 0 -15 11 0 9 -4 14 -9 10 -5 -3 -13 0 -16 5 -7 12 -50 31
-75 35 -85 11 -102 17 -97 36 5 19 -3 23 -33 19 -9 -1 -4 10 14 28 16 17 34
41 41 54 6 13 17 22 23 21 7 -2 12 4 12 13 0 8 3 13 8 11 4 -3 7 6 7 19 0 13
-3 24 -6 24 -9 0 -7 34 3 41 5 3 10 15 11 27 0 11 4 19 8 16 4 -2 10 0 14 6 3
5 0 10 -8 10 -24 0 -20 103 5 119 10 6 24 8 31 4 9 -5 9 -3 0 8 -11 14 -8 15
20 12 17 -2 42 -4 55 -5 12 0 22 -3 22 -7 0 -3 11 -6 24 -6 13 0 22 3 19 8 -2
4 4 7 15 7 24 0 32 39 32 153 l0 77 -3195 0 c-2893 0 -3195 -1 -3195 -16z
m4816 -351 c-4 -10 -4 -14 0 -11 6 7 44 -33 44 -46 0 -15 45 -66 57 -66 7 0
21 -9 30 -20 10 -11 21 -20 26 -20 12 0 57 -42 57 -53 0 -13 42 -47 73 -58 17
-7 30 -21 34 -37 3 -15 10 -30 15 -33 11 -7 -11 -59 -24 -59 -5 0 -7 -4 -3 -9
3 -5 -6 -22 -20 -37 -24 -26 -25 -29 -10 -40 22 -17 23 -15 -2 -50 -12 -17
-20 -34 -16 -37 3 -4 0 -13 -6 -21 -7 -8 -10 -20 -6 -26 3 -5 1 -10 -5 -10 -6
0 -8 -5 -5 -10 4 -6 2 -17 -5 -25 -7 -9 -8 -15 0 -20 5 -3 10 -17 10 -31 0
-14 -3 -23 -8 -20 -4 2 -30 -6 -57 -18 -36 -17 -57 -21 -77 -15 -16 4 -28 5
-28 2 0 -3 -7 0 -15 7 -10 9 -15 9 -15 1 0 -6 -9 -11 -19 -11 -11 0 -22 -4
-26 -10 -3 -6 -15 -6 -29 0 -33 12 -66 2 -99 -32 -16 -15 -26 -28 -22 -28 4 0
-1 -7 -9 -16 -18 -18 -20 -30 -6 -39 17 -10 11 -34 -10 -45 -23 -12 -565 -20
-552 -9 4 4 66 12 137 18 189 15 216 18 260 34 34 12 40 18 40 43 1 16 -7 40
-17 53 -10 13 -15 27 -12 32 9 16 -21 49 -36 39 -9 -6 -26 5 -55 35 -32 32
-53 44 -86 50 -59 10 -86 24 -68 36 11 7 10 9 -3 9 -10 0 -18 2 -18 4 0 2 -3
13 -7 23 -6 15 -5 16 9 5 14 -11 16 -10 11 8 -4 16 6 32 43 66 40 36 46 46 34
54 -8 5 -10 10 -4 10 6 0 11 16 12 36 1 20 6 42 13 50 8 10 7 19 -4 35 -9 12
-13 27 -11 34 3 7 1 16 -5 19 -6 4 -8 13 -4 22 3 8 -3 22 -13 30 -18 14 -18
15 1 12 11 -2 28 5 38 15 10 10 25 16 33 13 8 -3 14 -2 14 2 0 11 60 6 72 -6
7 -7 28 -2 64 15 30 14 62 22 70 19 9 -4 12 -2 8 5 -4 7 0 9 14 5 14 -5 26 0
40 18 10 14 22 22 26 19 3 -3 6 2 6 12 0 10 3 16 6 13 7 -8 44 28 44 43 0 6 9
9 20 6 13 -3 20 0 20 8 0 12 14 22 34 24 4 1 5 -7 2 -16z m-3013 -46 c4 3 7 1
7 -6 0 -6 11 -29 25 -51 14 -22 25 -46 25 -54 0 -9 6 -13 14 -10 8 3 17 0 21
-5 3 -6 22 -18 40 -25 19 -8 44 -26 56 -40 13 -14 29 -26 36 -26 7 0 21 -4 31
-9 9 -6 34 -13 54 -16 37 -6 56 -25 53 -55 -1 -8 -3 -22 -3 -31 -1 -8 -18 -32
-37 -53 -27 -30 -33 -42 -24 -52 9 -11 9 -14 0 -14 -7 0 -11 -13 -10 -32 2
-18 -3 -43 -10 -55 -6 -13 -9 -23 -5 -23 4 0 -1 -9 -11 -19 -16 -19 -16 -21 5
-50 12 -17 19 -35 16 -39 -3 -5 3 -25 13 -44 17 -35 17 -36 -1 -49 -15 -12
-16 -14 -3 -22 19 -10 10 -27 -13 -26 -14 0 -13 2 3 8 12 5 -9 7 -53 7 -50 -1
-75 -5 -81 -15 -6 -10 -10 -10 -16 -1 -4 6 -14 9 -22 6 -8 -3 -11 -1 -8 4 3 6
1 10 -4 10 -6 0 -11 -11 -11 -24 0 -18 7 -25 33 -31 17 -4 37 -9 42 -10 6 -1
73 -5 149 -9 138 -7 206 -23 206 -47 0 -21 -601 8 -623 30 -18 18 5 45 41 51
23 4 29 9 23 18 -4 8 -14 13 -22 12 -35 -5 -49 1 -49 21 0 28 -17 15 -25 -19
-5 -25 -65 -75 -65 -55 0 4 -5 1 -10 -7 -6 -9 -10 -11 -10 -3 0 7 -7 10 -15 7
-8 -4 -13 -9 -10 -14 2 -4 -10 -7 -27 -6 -40 1 -61 31 -35 50 19 14 23 36 7
36 -5 0 -10 24 -10 53 -1 40 -3 48 -11 35 -10 -18 -35 -24 -41 -10 -5 11 -100
82 -112 83 -6 0 -19 2 -28 5 -83 20 -99 34 -105 91 -2 18 3 37 11 46 22 22 29
62 14 78 -14 15 -20 34 -19 59 1 52 9 101 19 113 12 14 11 105 -2 125 -3 5 2
9 12 8 9 0 16 5 14 12 -1 9 6 10 24 6 19 -5 25 -4 20 5 -9 15 7 14 22 -1 9 -9
12 -9 12 0 0 15 73 16 100 2 12 -6 27 -7 42 -1 51 21 65 24 115 27 34 3 68 13
101 33 59 34 93 42 108 24 6 -7 14 -10 17 -6z m1434 -55 c10 8 17 6 31 -9 9
-11 24 -19 33 -18 12 2 15 -3 12 -16 -3 -10 4 -30 16 -45 12 -15 21 -35 21
-45 0 -10 9 -21 20 -24 11 -3 20 -11 20 -17 0 -5 7 -8 15 -4 8 3 15 0 15 -7 0
-7 9 -18 20 -25 12 -7 18 -17 15 -22 -3 -6 2 -10 12 -11 33 -1 66 -9 78 -19 7
-5 15 -7 18 -3 4 3 7 1 7 -6 0 -8 7 -11 15 -7 10 4 15 -1 15 -15 0 -11 4 -28
9 -37 6 -12 3 -24 -10 -41 -10 -13 -19 -21 -19 -18 0 14 -52 -48 -56 -67 -17
-75 -6 -166 20 -166 7 0 7 -3 -1 -8 -8 -5 -8 -16 2 -45 11 -31 7 -45 -9 -34
-2 1 -12 -6 -22 -15 -11 -9 -39 -19 -64 -23 -25 -4 -50 -8 -56 -9 -7 -1 -20
-8 -30 -16 -11 -9 -15 -10 -10 -3 5 9 2 11 -8 7 -9 -3 -14 -9 -13 -12 1 -4 -2
-7 -8 -7 -5 0 -9 4 -7 8 1 5 -3 5 -10 0 -7 -4 -15 -8 -18 -9 -23 -4 -40 -19
-36 -30 6 -16 -3 -18 -23 -5 -15 10 -51 -20 -51 -43 0 -26 -62 -37 -176 -31
-60 3 -189 10 -287 14 -98 5 -181 12 -184 14 -17 18 25 25 174 31 255 10 233
6 249 44 7 18 9 30 4 27 -6 -3 -16 -3 -22 2 -7 4 -15 8 -18 9 -19 4 -39 17
-35 24 8 13 -76 90 -97 90 -10 0 -18 5 -18 10 0 6 -13 8 -28 5 -36 -6 -60 11
-71 51 -8 29 -6 33 52 80 34 27 64 48 68 47 7 -2 24 93 20 116 -1 7 2 10 8 6
6 -3 11 0 12 7 0 7 2 23 3 36 2 12 -1 22 -5 22 -5 0 -6 6 -3 14 3 8 1 17 -5
20 -6 4 -8 13 -4 21 3 9 0 22 -6 29 -9 11 -9 16 0 22 7 4 9 3 5 -4 -4 -6 1
-10 13 -9 14 1 17 5 10 13 -6 8 -4 14 8 19 25 11 45 16 66 18 9 1 17 5 17 10
0 5 9 5 20 2 11 -4 20 -2 20 4 0 6 7 11 16 11 9 0 12 5 8 13 -4 6 -4 9 0 5 4
-3 26 0 48 8 21 7 42 13 46 13 26 -4 51 4 70 21 12 11 26 20 32 20 5 0 10 5
10 12 0 9 3 9 12 0 8 -8 15 -9 25 0z m2331 -737 c-3 -3 -65 -12 -139 -20 -74
-8 -179 -21 -234 -29 -55 -8 -125 -15 -155 -15 -30 0 -79 -3 -107 -7 -44 -5
-53 -4 -53 9 0 16 47 30 80 25 8 -2 51 3 95 9 44 6 130 12 190 13 61 0 137 4
170 9 70 10 161 13 153 6z m-2264 -87 c-5 -8 -2 -9 9 -5 9 3 19 2 22 -3 3 -5
13 -9 23 -9 144 -2 508 -14 511 -17 11 -10 -17 -13 -199 -18 -107 -3 -241 -8
-297 -12 l-103 -7 0 36 c0 25 5 37 18 40 9 3 18 5 20 6 2 0 0 -4 -4 -11z
m-3059 -473 c49 -6 339 -25 680 -45 99 -6 207 -13 240 -15 33 -3 165 -9 294
-15 129 -6 237 -13 240 -16 6 -7 -387 4 -398 10 -4 3 -73 7 -155 10 -191 8
-428 23 -743 47 -139 10 -275 19 -303 19 -29 0 -50 5 -50 11 0 9 91 7 195 -6z
m6070 -6 c-120 -14 -360 -31 -690 -49 -689 -38 -881 -46 -890 -38 -5 4 6 8 25
8 110 1 555 25 780 41 80 6 162 10 182 10 21 -1 93 3 160 9 68 5 175 12 238
15 63 4 116 8 119 11 2 2 36 3 75 3 l71 -2 -70 -8z m-3975 -99 c201 -6 473
-11 605 -12 132 -1 223 -3 202 -5 -20 -2 -35 -8 -32 -14 4 -5 -5 -5 -21 1 -16
6 -132 10 -285 10 -309 -1 -1011 19 -1022 30 -4 4 36 5 90 3 54 -2 262 -8 463
-13z m1736 0 c345 10 570 13 563 6 -8 -8 -706 -27 -951 -26 -193 0 -248 -2
-249 -12 0 -10 -2 -10 -6 0 -3 8 -33 12 -101 12 -52 0 -93 3 -90 6 3 3 112 5
242 6 145 0 239 4 242 10 4 7 9 6 13 -1 6 -8 94 -9 337 -1z"/>
<path d="M830 694 c0 -11 -5 -14 -16 -10 -13 5 -14 4 -6 -7 15 -17 6 -27 -25
-27 -17 0 -22 4 -17 13 5 8 2 8 -9 -2 -9 -7 -17 -10 -17 -6 0 4 -6 2 -14 -4
-7 -6 -22 -8 -32 -5 -11 4 -16 4 -12 -1 4 -4 3 -14 -3 -22 -9 -9 -8 -13 0 -13
6 0 11 4 11 9 0 13 68 21 93 11 12 -5 16 -9 8 -9 -10 -1 -11 -4 -2 -15 10 -12
7 -15 -21 -18 -18 -2 -32 -7 -30 -13 2 -5 13 -9 25 -7 12 1 29 3 37 4 8 1 21
8 28 17 8 9 10 10 6 2 -5 -11 -1 -13 19 -9 20 4 28 0 33 -15 6 -18 8 -17 35
13 22 23 29 27 29 14 0 -22 9 -13 15 15 4 24 1 25 -26 11 -11 -6 -19 -7 -18
-3 4 23 -5 29 -42 30 -42 2 -64 12 -42 20 7 2 9 11 6 19 -3 8 0 14 6 14 7 0
14 -7 17 -15 4 -8 11 -15 16 -15 6 0 6 6 -1 14 -9 11 -9 15 1 19 7 3 -2 6 -19
6 -24 1 -33 -3 -33 -15z"/>
<path d="M2195 531 c-3 -6 1 -14 10 -18 14 -8 14 -11 -1 -28 -14 -18 -15 -18
-10 -2 3 10 2 15 -4 12 -5 -3 -18 0 -28 6 -14 9 -27 9 -50 1 -17 -6 -34 -7
-36 -3 -6 9 -76 2 -76 -8 0 -10 -49 -5 -82 8 -39 15 -35 4 5 -13 17 -8 25 -15
16 -15 -9 -1 -22 -7 -29 -15 -13 -16 -44 -10 -33 7 4 7 -2 8 -18 3 -13 -4 -31
-8 -39 -9 -8 -1 -19 -8 -23 -15 -7 -10 -12 -10 -23 -1 -11 9 -19 8 -39 -5 -13
-9 -31 -16 -38 -16 -8 0 -20 -6 -26 -14 -10 -12 -8 -13 11 -8 19 4 21 3 12 -9
-9 -11 -8 -17 4 -29 14 -13 15 -12 9 2 -4 12 -1 16 14 15 10 -1 19 -6 19 -12
0 -5 4 -3 10 5 6 9 5 17 -3 22 -7 4 -8 8 -3 8 5 0 3 7 -4 15 -9 10 -9 15 -1
15 21 0 26 -2 24 -9 -1 -4 14 -3 33 3 18 6 34 14 34 18 0 5 5 8 11 8 5 0 7 -5
3 -12 -5 -8 0 -9 14 -6 12 4 20 2 16 -3 -3 -5 6 -5 20 1 14 5 33 7 41 4 8 -4
15 -1 15 6 0 6 -4 8 -10 5 -5 -3 -10 -2 -10 3 0 5 26 14 58 20 156 29 167 30
174 19 4 -6 2 -15 -5 -19 -9 -6 -9 -8 1 -8 6 0 12 -6 12 -14 0 -8 -6 -16 -12
-19 -7 -2 -10 -7 -7 -11 3 -3 23 5 43 19 20 14 40 25 44 25 4 0 0 -4 -8 -10
-8 -5 -11 -12 -7 -17 5 -4 12 -1 17 7 7 10 5 18 -4 26 -8 5 -14 17 -14 25 3
44 -11 65 -27 40z"/>
<path d="M5477 525 c-4 -8 -2 -15 4 -15 6 0 7 -5 4 -10 -3 -6 5 -14 19 -20 26
-9 35 -29 16 -31 -5 -1 -16 -2 -22 -3 -7 -1 -17 0 -23 3 -5 3 -16 6 -25 8 -8
1 -28 5 -45 8 -20 4 -26 3 -17 -3 28 -19 -14 -21 -44 -2 -25 17 -26 20 -10 26
11 4 22 1 28 -7 8 -12 9 -11 5 1 -5 18 -83 18 -100 1 -8 -8 -7 -11 4 -11 8 0
20 5 26 11 9 9 10 7 6 -10 -3 -11 -9 -21 -14 -21 -5 0 -9 -4 -9 -8 0 -5 7 -9
15 -9 8 0 15 6 15 14 0 7 7 13 15 13 8 0 15 -5 15 -11 0 -5 -6 -7 -12 -3 -7 4
-9 3 -5 -1 4 -5 31 -11 58 -13 39 -3 49 -1 44 9 -6 8 -4 10 6 3 8 -5 34 -9 59
-9 40 0 45 -3 46 -22 1 -13 -3 -23 -8 -23 -5 0 -3 -6 4 -14 9 -10 18 -11 31
-5 13 8 17 6 17 -8 1 -17 1 -17 11 1 9 14 8 21 -2 28 -10 7 -8 8 9 5 19 -5 21
-3 11 9 -6 8 -18 14 -25 14 -8 0 -22 5 -32 11 -18 11 -18 13 3 35 27 29 31 30
46 3 9 -17 8 -24 -2 -31 -11 -7 -9 -8 4 -4 10 3 23 6 29 6 7 0 6 5 -1 14 -13
15 1 32 18 22 5 -3 13 0 19 7 15 18 -90 16 -112 -2 -14 -12 -17 -12 -14 -1 2
8 -3 15 -9 16 -7 1 -18 2 -23 3 -6 0 -10 8 -8 17 4 22 -18 29 -25 9z"/>
<path d="M4736 478 c3 -5 12 -7 20 -4 8 3 14 1 14 -5 0 -6 8 -9 18 -7 11 2 29
-9 44 -27 22 -25 28 -27 41 -16 11 9 21 10 35 2 11 -6 23 -7 27 -3 3 4 5 0 3
-8 -2 -9 6 -15 22 -16 14 -1 41 -8 60 -17 19 -8 39 -15 44 -15 5 0 12 -5 16
-12 5 -8 11 -6 20 5 7 9 9 15 4 14 -23 -4 -35 2 -27 14 13 20 12 35 -3 41 -8
3 -14 1 -14 -4 0 -6 -6 -9 -12 -7 -7 1 -12 -4 -11 -10 2 -7 -6 -13 -18 -13
-19 0 -19 1 -4 17 16 16 16 17 -1 30 -10 7 -14 13 -8 13 5 1 -4 8 -19 16 -23
12 -35 13 -63 4 -21 -7 -51 -9 -77 -4 -23 4 -45 7 -49 6 -5 -1 -8 1 -8 6 0 4
-13 8 -30 8 -16 1 -27 -3 -24 -8z"/>
<path d="M1909 413 c-1 -4 -1 -12 0 -17 1 -5 -6 -6 -16 -2 -12 4 -9 -1 7 -14
14 -11 32 -19 40 -19 28 2 32 -1 20 -16 -7 -8 -17 -12 -23 -8 -6 4 -8 0 -4
-11 5 -13 3 -15 -11 -7 -18 9 -24 11 -44 11 -9 0 -8 4 2 11 12 8 10 9 -10 7
-14 -2 -24 -9 -22 -16 1 -6 -1 -11 -5 -10 -14 4 -53 -13 -53 -23 0 -15 -43
-28 -57 -17 -9 7 -24 4 -49 -11 -20 -12 -43 -20 -50 -17 -17 7 -46 -22 -38
-36 4 -7 2 -8 -5 -4 -6 4 -9 12 -6 17 4 5 -3 9 -15 9 -14 0 -19 -4 -14 -12 4
-7 4 -10 -1 -6 -4 4 -15 2 -24 -5 -14 -11 -15 -10 -1 7 13 16 12 20 -5 32 -22
17 -20 17 23 5 31 -9 34 -8 36 21 1 18 -47 26 -62 11 -8 -7 -18 -10 -24 -7 -6
4 0 13 16 21 27 14 35 33 13 33 -7 0 -22 -6 -33 -14 -15 -12 -17 -18 -8 -33 6
-10 9 -31 7 -47 -2 -16 1 -32 8 -37 16 -10 20 -37 7 -45 -6 -4 -5 -10 3 -15
11 -7 9 -10 -8 -15 -13 -4 -21 -10 -18 -14 9 -15 -36 -31 -108 -39 -4 -1 -6
-6 -5 -12 2 -6 -4 -14 -12 -17 -8 -2 -12 -1 -8 3 4 4 0 14 -10 21 -16 12 -16
13 1 19 9 4 17 11 17 16 0 5 -9 4 -20 -3 -11 -7 -18 -19 -15 -27 4 -10 0 -12
-17 -6 -13 4 -31 7 -42 6 -18 0 -18 0 0 14 11 8 29 15 41 15 23 0 37 13 26 24
-3 3 -12 1 -19 -5 -10 -8 -19 -6 -36 5 l-22 16 27 0 c19 0 27 5 27 18 1 16 1
16 14 0 7 -10 16 -15 19 -11 4 3 7 -2 7 -11 0 -12 5 -16 15 -12 13 5 19 -4 17
-25 -1 -3 9 -4 21 -3 12 1 26 3 30 3 5 1 5 7 2 13 -4 7 0 5 8 -4 18 -22 30
-12 16 13 -8 15 -14 17 -29 9 -24 -13 -30 -13 -30 1 0 5 4 8 9 4 6 -3 15 4 21
15 6 11 8 20 4 20 -3 0 -1 7 7 16 16 19 19 54 5 48 -6 -2 -16 7 -23 21 -9 20
-8 25 3 25 8 0 14 4 14 10 0 5 6 8 13 6 6 -1 8 -1 4 2 -4 2 0 10 10 18 16 13
15 13 -9 3 -16 -7 -28 -17 -28 -22 0 -5 -7 -4 -15 3 -13 11 -14 10 -9 -4 7
-18 -6 -22 -22 -6 -15 15 -44 2 -37 -16 3 -9 16 -14 31 -12 17 2 29 -4 39 -20
14 -20 14 -22 -5 -22 -12 0 -24 -4 -27 -10 -3 -5 -16 -10 -28 -10 -13 0 -33
-7 -45 -16 -12 -8 -27 -12 -34 -8 -6 4 -8 3 -4 -4 10 -16 -7 -22 -22 -6 -10
11 -5 15 28 24 21 6 42 15 45 20 3 5 13 7 23 4 15 -5 15 -5 -1 6 -9 6 -23 8
-30 3 -6 -4 -20 -6 -29 -5 -10 2 -18 -2 -18 -9 0 -7 -3 -10 -6 -6 -3 3 -16 -5
-28 -17 -11 -13 -28 -21 -36 -18 -12 4 -12 2 -3 -8 10 -10 15 -11 27 -1 24 20
31 -8 7 -32 -16 -16 -21 -18 -21 -7 0 9 -8 20 -17 26 -19 11 -21 6 -26 -63 -1
-13 -8 -25 -15 -28 -7 -3 -10 0 -7 5 3 6 2 10 -4 10 -16 0 -23 -18 -12 -37 8
-16 3 -18 -59 -18 -50 0 -66 3 -63 12 3 7 9 10 14 7 5 -3 9 1 9 9 0 8 10 22
21 33 21 19 22 19 15 -3 -8 -26 11 -32 32 -11 17 17 15 31 -3 24 -8 -3 -15 -1
-15 3 0 14 28 21 32 9 7 -21 46 2 46 27 0 32 59 95 90 95 12 0 22 4 22 9 0 5
11 11 25 13 14 2 24 8 23 13 -2 6 -7 8 -13 6 -5 -2 -21 -6 -35 -9 -22 -5 -24
-4 -11 12 8 9 10 20 6 24 -4 4 -10 1 -12 -5 -3 -7 -9 -13 -15 -13 -6 0 -6 6 2
15 8 9 9 15 2 15 -17 0 -24 -18 -13 -38 8 -16 5 -18 -27 -20 -30 -2 -34 0 -24
10 6 6 12 23 12 36 0 13 4 21 9 18 12 -8 41 4 41 16 0 5 -15 8 -32 6 -28 -2
-33 0 -30 17 4 20 3 20 -12 0 -14 -18 -15 -18 -16 -2 0 10 7 20 15 23 8 4 13
10 10 15 -8 12 -35 -1 -35 -17 0 -19 -46 -36 -82 -30 -15 2 -28 0 -28 -6 0 -6
7 -8 15 -4 13 5 13 3 0 -17 -11 -18 -22 -22 -52 -20 -34 2 -58 -3 -118 -27
-31 -12 -63 -10 -76 6 -16 19 -25 18 -49 -8 -11 -12 -20 -18 -20 -12 1 13 22
38 50 57 13 9 20 17 15 17 -6 0 -18 -7 -28 -15 -11 -7 -25 -11 -33 -8 -17 6
-19 24 -1 19 6 -1 9 -1 4 1 -4 3 -4 10 0 16 5 8 2 8 -9 0 -8 -7 -18 -9 -22 -5
-4 4 -7 3 -6 -3 1 -5 2 -20 1 -32 -1 -16 -6 -20 -21 -16 -17 4 -27 -7 -17 -20
1 -2 -4 -11 -12 -20 -16 -21 -5 -21 29 -2 29 17 44 19 35 6 -3 -5 1 -11 9 -13
10 -2 6 -9 -12 -23 -21 -15 -24 -15 -13 -2 16 20 16 20 -26 8 -22 -7 -34 -6
-37 2 -5 9 -8 9 -12 -1 -3 -6 -10 -10 -15 -6 -5 3 -9 0 -9 -5 0 -6 -7 -11 -15
-11 -16 0 -16 -20 0 -32 6 -4 -3 -7 -20 -7 -16 0 -24 3 -17 6 6 2 12 9 12 14
0 6 -4 8 -9 5 -13 -8 -42 4 -35 15 3 5 0 9 -6 9 -6 0 -9 4 -6 9 4 5 0 12 -6
15 -7 4 -3 4 10 2 19 -4 22 -1 17 15 -8 24 0 24 25 -1 22 -22 18 -45 -6 -36
-8 3 -14 -1 -14 -9 0 -19 5 -19 35 1 14 9 22 21 18 27 -4 6 2 8 15 5 12 -4 20
-2 16 3 -3 5 2 6 10 3 10 -4 14 0 13 15 -1 23 -27 30 -27 8 0 -21 -57 -19 -62
1 -5 17 -2 18 78 25 11 1 21 8 21 15 0 13 -4 13 -59 -5 -15 -4 -16 -1 -8 28 6
22 6 37 0 43 -7 7 -10 4 -10 -7 0 -9 -3 -17 -7 -18 -60 -6 -137 -49 -88 -49 8
0 15 -7 15 -16 0 -14 -2 -14 -15 -1 -8 9 -24 13 -35 10 -11 -3 -20 -6 -20 -7
0 -1 4 -16 9 -33 8 -28 7 -33 -10 -38 -25 -8 -15 -25 14 -25 18 0 22 6 22 32
0 26 5 33 27 39 16 4 28 3 28 -2 0 -5 -6 -9 -13 -9 -7 0 -18 -10 -26 -22 -13
-21 -13 -22 1 -10 13 10 17 10 22 -3 4 -11 -6 -20 -35 -31 -22 -9 -38 -22 -36
-28 3 -7 -4 -13 -14 -13 -17 -2 -18 0 -4 13 20 21 9 37 -21 30 -19 -5 -22 -3
-17 11 6 16 5 16 -10 4 -9 -7 -14 -17 -11 -22 3 -5 -4 -9 -15 -9 -27 0 -37 19
-14 26 34 10 48 21 48 36 0 9 7 24 15 34 17 20 9 17 -40 -16 -14 -9 -35 -20
-48 -23 -23 -5 -23 -5 3 19 14 13 23 29 20 34 -3 6 0 11 7 11 38 4 74 3 78 -2
3 -3 12 2 21 11 15 16 13 17 -20 15 -20 -1 -36 -3 -36 -4 0 -1 -17 -3 -37 -5
-21 -2 -35 1 -32 6 8 12 -7 10 -38 -6 -16 -8 -28 -11 -28 -5 0 5 -5 9 -10 9
-7 0 -7 -6 -1 -18 8 -14 5 -18 -11 -19 -15 -2 -17 1 -9 11 14 17 3 28 -18 17
-19 -10 -50 -6 -64 8 -7 7 -16 7 -29 0 -11 -6 -22 -8 -26 -5 -3 3 0 6 6 6 6 0
16 10 23 22 9 17 9 20 -2 16 -8 -3 -23 -2 -34 3 -19 7 -19 8 1 8 12 1 28 8 35
17 12 15 11 16 -11 8 -14 -4 -37 -7 -53 -6 -30 1 -36 -14 -10 -33 9 -7 13 -17
8 -25 -6 -10 -9 -9 -16 1 -7 11 -9 10 -9 -5 0 -15 5 -17 28 -12 l27 6 -27 -24
c-28 -25 -36 -64 -22 -101 5 -13 9 -14 15 -4 4 8 12 10 16 5 4 -4 -1 -14 -12
-22 -11 -8 -21 -26 -22 -40 -2 -21 1 -23 12 -14 8 7 13 16 10 19 -2 4 2 8 10
8 13 0 13 -3 0 -24 -13 -19 -13 -26 -3 -43 14 -22 24 -25 33 -10 3 5 1 10 -5
10 -6 0 -8 5 -4 11 4 8 10 6 17 -6 9 -17 11 -16 23 6 7 13 13 18 14 12 0 -15
44 -16 75 -3 11 5 16 9 12 9 -5 1 -2 8 7 16 8 8 21 13 28 10 8 -3 25 3 38 15
25 22 45 26 55 10 3 -6 -4 -10 -17 -10 -26 -1 -65 -26 -55 -37 4 -3 15 1 25
10 10 10 24 17 31 17 9 0 9 -3 -1 -12 -26 -24 -55 -36 -67 -29 -7 5 -29 0 -49
-10 -20 -11 -44 -17 -53 -14 -19 6 -51 -4 -45 -14 3 -4 -10 -7 -27 -8 -62 -2
-67 -3 -67 -17 0 -17 33 -31 38 -17 5 14 42 14 42 1 0 -5 25 -10 55 -10 37 0
55 4 55 13 0 8 3 9 8 1 9 -14 162 -19 162 -6 0 19 -73 24 -111 8 -10 -4 -16
-2 -16 8 0 8 6 12 16 9 13 -5 14 -3 3 8 -17 19 -15 28 8 26 11 -1 20 -7 20
-14 0 -15 16 -17 25 -3 3 6 0 10 -7 10 -8 0 -6 5 5 11 10 6 21 8 24 5 4 -3 1
-6 -6 -6 -7 0 -10 -4 -6 -10 3 -5 12 -7 20 -3 11 4 13 1 9 -11 -4 -10 -1 -16
9 -16 18 0 32 30 14 30 -7 0 -4 5 6 11 32 19 45 -6 19 -34 -12 -13 -22 -26
-22 -29 0 -12 222 -9 237 4 11 9 16 9 22 0 9 -15 121 -10 164 7 22 9 29 8 33
-4 4 -8 11 -15 16 -15 6 0 7 7 4 16 -5 12 -1 14 17 9 18 -5 16 -3 -8 14 -27
18 -28 21 -10 27 11 4 27 13 35 19 13 11 50 17 50 9 0 -2 -9 -12 -20 -22 l-21
-19 26 4 c14 3 25 9 25 13 0 5 9 12 20 15 11 3 20 10 20 15 0 5 -7 7 -15 4 -8
-4 -15 -1 -15 6 0 6 4 9 9 6 4 -3 17 1 27 9 18 13 18 14 -9 24 -23 9 -32 8
-43 -4 -9 -8 -20 -15 -25 -15 -6 0 -7 -4 -4 -10 3 -6 -1 -7 -10 -4 -14 6 -14
8 2 20 10 7 13 14 7 14 -6 0 -23 -9 -38 -21 -14 -11 -32 -18 -39 -16 -9 4 -9
6 1 6 7 1 11 5 8 10 -4 5 8 13 26 17 29 6 30 8 13 14 -15 6 -12 8 14 7 23 0
39 7 50 22 9 12 20 19 24 15 4 -4 -1 -13 -11 -21 -15 -12 -12 -13 22 -8 33 5
37 3 27 -9 -10 -12 -8 -17 7 -25 11 -6 22 -7 26 -3 4 3 20 6 36 7 17 0 30 4
29 8 -1 12 33 36 50 37 10 0 11 -3 2 -13 -6 -8 -8 -17 -4 -21 4 -4 -1 -4 -11
0 -13 5 -17 4 -13 -3 10 -15 -27 -27 -100 -32 -13 0 -29 -13 -39 -30 -9 -15
-31 -34 -49 -41 -17 -7 -37 -21 -43 -31 -11 -17 -9 -19 20 -18 19 1 25 3 15 6
-18 5 -18 5 0 19 10 7 25 13 33 14 13 0 13 -1 0 -10 -13 -8 -13 -11 -1 -22 9
-8 15 -9 17 -2 3 5 19 8 37 6 17 -3 76 -6 131 -8 90 -2 99 -1 103 17 3 10 9
19 13 19 5 0 6 -9 3 -20 -3 -11 0 -20 6 -20 6 0 11 4 11 10 0 6 9 6 26 0 33
-13 161 -13 169 0 3 6 13 10 21 10 9 0 12 -5 8 -12 -5 -8 2 -9 26 -4 40 8 49
14 31 25 -10 7 -9 9 3 14 18 7 28 -5 21 -25 -5 -12 12 -15 87 -16 76 -1 102 3
141 20 26 12 47 24 47 27 0 3 -14 7 -30 8 -20 2 -33 -3 -37 -13 -4 -11 -8 -12
-13 -4 -9 15 -40 1 -33 -16 3 -8 0 -14 -7 -14 -6 0 -8 4 -5 10 4 6 -7 8 -27 5
l-33 -5 28 13 c16 8 33 20 38 28 6 9 9 10 9 2 0 -18 59 5 89 34 22 21 41 30
41 18 0 -2 -9 -13 -21 -23 -19 -18 -19 -20 -2 -26 10 -4 19 -3 21 3 2 5 9 8
17 5 10 -4 9 -10 -6 -25 -10 -10 -26 -19 -35 -19 -8 0 -13 -4 -10 -9 4 -5 0
-12 -6 -15 -7 -3 31 -4 84 -2 84 3 100 6 115 24 26 29 63 39 63 15 0 -11 -3
-14 -8 -6 -5 8 -13 6 -30 -7 -12 -10 -18 -21 -13 -24 5 -4 61 -6 125 -5 83 1
119 5 127 15 6 7 8 17 5 23 -3 5 10 18 30 30 38 22 59 27 49 11 -3 -5 -1 -10
4 -10 6 0 11 6 11 14 0 8 7 17 15 20 22 8 32 -24 11 -36 -10 -6 -15 -18 -12
-34 5 -24 -9 -34 -16 -12 -3 9 -6 9 -12 0 -9 -16 18 -27 42 -16 9 4 23 6 30 5
22 -3 13 16 -10 23 -21 5 -21 6 -6 18 9 7 22 25 27 40 8 21 16 27 39 26 16 -1
34 2 41 6 6 4 11 1 11 -8 0 -8 -4 -18 -10 -21 -5 -3 -10 -1 -10 4 0 6 -4 11
-10 11 -5 0 -10 -7 -10 -15 0 -8 -12 -18 -26 -21 -19 -5 -22 -9 -12 -15 9 -6
6 -9 -12 -10 -17 -1 -12 -4 18 -11 23 -5 42 -12 42 -16 0 -4 9 -8 20 -9 11 -1
18 2 15 8 -4 5 -1 9 5 9 7 0 20 10 29 22 17 20 19 21 51 5 28 -14 35 -15 44
-3 6 8 21 17 33 21 18 5 25 1 34 -19 7 -14 17 -22 23 -19 6 4 5 -1 -3 -10 -15
-18 -51 -23 -51 -7 0 6 4 10 8 10 4 0 8 9 8 20 0 26 -1 25 -38 -9 -25 -24 -28
-29 -14 -34 10 -4 15 -3 11 3 -3 6 -2 10 4 10 5 0 13 -5 16 -10 3 -6 30 -10
58 -9 29 0 46 3 39 6 -10 4 -10 8 -1 19 8 10 8 14 0 14 -6 0 -11 5 -11 10 0 6
9 10 19 10 11 0 18 6 17 15 0 9 16 23 41 34 l41 19 7 -21 c4 -12 6 -26 6 -31
-1 -5 5 -3 14 4 12 10 19 10 27 2 14 -14 -8 -45 -25 -35 -6 3 -7 1 -3 -5 4 -7
3 -12 -3 -12 -6 0 -8 -7 -5 -15 8 -21 21 -19 29 5 3 11 11 20 16 20 6 0 8 -4
5 -8 -2 -4 -1 -14 4 -22 8 -13 11 -13 22 -1 11 11 11 14 0 18 -9 3 -3 12 17
24 35 21 54 26 28 6 -16 -11 -12 -12 23 -13 58 -2 68 -14 23 -28 -17 -6 -23
-3 -23 8 0 9 -5 16 -10 16 -7 0 -7 -6 0 -20 12 -23 32 -25 59 -9 13 9 26 9 48
2 25 -9 36 -7 62 9 17 11 31 23 32 26 0 4 2 15 4 25 2 9 -1 17 -6 17 -5 0 -9
-4 -9 -10 0 -5 -7 -10 -15 -10 -9 0 -12 6 -8 16 5 14 3 15 -16 5 -12 -7 -19
-16 -17 -20 9 -14 -42 -31 -73 -25 -32 7 -32 27 -2 51 10 7 -2 6 -29 -3 -35
-12 -49 -13 -64 -4 -10 6 -15 7 -12 2 3 -5 -5 -17 -18 -25 -23 -15 -23 -15
-20 15 3 23 0 29 -11 25 -21 -9 -7 21 16 34 13 6 19 6 19 -1 0 -5 4 -10 9 -10
4 0 8 13 7 29 -1 26 -3 28 -26 19 -14 -6 -41 -10 -60 -9 -26 0 -31 -2 -20 -9
13 -9 13 -10 0 -10 -8 0 -21 4 -29 9 -15 9 -9 11 95 27 18 2 37 11 44 19 7 8
15 13 19 11 4 -3 13 0 21 5 10 6 -3 9 -42 6 -31 -1 -54 1 -52 5 3 4 0 8 -5 8
-6 0 -11 7 -11 15 0 8 -8 16 -17 17 -10 0 -25 2 -33 3 -8 1 -26 -2 -38 -7 -13
-4 -29 -5 -35 -1 -7 5 -20 8 -29 8 -10 0 -17 5 -15 10 1 6 7 9 14 9 7 -1 11 3
10 10 -1 6 5 11 13 11 8 0 14 -8 14 -17 -1 -10 1 -18 5 -18 12 0 33 17 31 26
-1 5 3 10 9 12 6 2 11 -4 11 -14 0 -14 3 -15 12 -6 9 9 8 15 -5 24 -16 12 -16
14 3 26 11 7 20 8 20 2 0 -5 7 -7 15 -3 9 3 13 8 11 11 -3 3 2 11 12 18 14 10
15 15 4 26 -11 11 -16 10 -31 -7 -22 -26 -80 -57 -92 -49 -6 3 -16 1 -23 -5
-8 -7 -20 -10 -27 -9 -8 2 -14 -4 -14 -12 0 -21 -42 -48 -68 -43 -18 4 -23 0
-24 -18 -2 -27 -10 -35 -43 -43 -22 -6 -22 -5 5 10 l29 17 -23 9 c-23 8 -23 9
-6 28 21 23 8 26 -30 6 -26 -13 -26 -14 -6 -21 27 -8 28 -35 2 -28 -23 6 -39
-16 -20 -28 10 -6 9 -8 -6 -7 -11 1 -31 -2 -45 -7 -24 -7 -23 -6 8 29 38 44
39 46 10 46 -19 0 -20 -2 -8 -10 8 -5 10 -10 4 -10 -13 0 -32 20 -33 35 -1 11
-21 14 -21 3 0 -5 0 -15 0 -24 0 -8 5 -12 10 -9 6 3 10 -1 10 -10 0 -9 5 -13
10 -10 18 11 11 -4 -12 -27 -29 -29 -54 -33 -54 -8 0 15 5 18 18 14 12 -4 18
0 18 11 0 10 -5 13 -12 9 -6 -4 -8 -3 -4 4 3 6 2 13 -4 17 -5 3 -10 -1 -10
-11 0 -13 -3 -14 -15 -4 -16 13 -18 9 -16 -25 2 -16 0 -17 -8 -5 -5 8 -13 12
-16 8 -3 -3 1 -12 9 -21 14 -13 13 -15 -7 -21 -24 -6 -41 12 -27 29 5 6 5 17
0 25 -8 12 -13 13 -30 2 -11 -7 -20 -8 -20 -3 0 11 25 21 50 21 10 0 20 7 24
15 6 17 -19 21 -29 5 -4 -7 -12 -7 -25 0 -29 16 -48 12 -26 -5 17 -13 18 -15
3 -15 -9 0 -17 -4 -17 -9 0 -5 -15 -14 -32 -20 -24 -9 -29 -14 -20 -20 11 -7
10 -9 -3 -14 -11 -5 -14 -3 -9 5 5 8 1 9 -12 5 -16 -5 -15 -4 3 9 19 13 20 19
11 40 -9 18 -14 21 -25 13 -7 -6 -13 -18 -13 -25 0 -8 -12 -16 -27 -20 -16 -3
-34 -7 -40 -10 -23 -7 -13 4 23 25 38 23 42 41 5 21 -37 -19 -23 -1 19 25 23
14 38 30 36 34 -7 10 51 23 68 15 6 -3 0 4 -13 15 -25 23 -21 27 10 11 13 -7
19 -7 19 0 0 5 -5 10 -11 10 -5 0 -7 5 -3 11 13 22 -41 -3 -59 -27 -10 -13
-25 -24 -33 -24 -8 0 -14 -6 -14 -14 0 -7 -15 -21 -34 -30 -39 -18 -50 -20
-41 -6 9 14 4 13 -49 -11 -26 -11 -50 -27 -53 -35 -3 -7 -9 -11 -14 -8 -6 3
-16 0 -24 -6 -21 -17 -19 -7 4 18 10 12 20 19 23 17 2 -3 31 9 63 25 62 32
101 39 89 18 -5 -10 -4 -10 6 -1 8 7 10 21 5 40 -7 27 -7 28 -16 6 -4 -13 -14
-24 -21 -25 -7 0 -18 -2 -24 -2 -6 -1 -18 -6 -25 -12 -23 -18 -72 -31 -101
-27 -16 2 -28 -1 -28 -6 0 -6 8 -8 18 -5 14 5 14 3 -3 -10 -21 -18 -46 -18
-52 0 -2 6 8 16 22 24 36 19 24 23 -13 4 -36 -18 -36 -17 -20 -44 15 -24 4
-37 -40 -46 -21 -4 -32 -3 -32 5 0 6 13 14 28 17 36 7 39 32 3 27 -26 -3 -26
-3 -3 8 12 7 22 16 22 21 0 5 -12 2 -27 -6 -16 -8 -36 -17 -45 -20 -10 -3 -18
-10 -18 -15 0 -7 9 -7 25 -1 14 5 27 5 30 1 3 -5 -13 -12 -35 -16 -22 -4 -40
-11 -40 -16 0 -5 -8 -9 -18 -9 -10 0 -23 -5 -29 -11 -7 -7 -12 -6 -16 5 -4 11
-1 16 12 16 20 0 74 39 54 40 -6 0 -15 -4 -18 -10 -3 -5 -11 -10 -16 -10 -6 0
-7 5 -3 11 4 8 -1 9 -17 4 -13 -4 -25 -11 -27 -15 -6 -16 -51 -60 -61 -60 -6
0 -8 -6 -5 -14 3 -8 0 -17 -6 -21 -8 -5 -8 -10 0 -20 7 -8 8 -20 4 -27 -5 -7
-9 -19 -9 -25 0 -7 -4 -12 -9 -12 -5 0 -13 -5 -17 -13 -6 -9 -9 -9 -9 -1 0 7
8 17 18 23 14 10 13 11 -8 6 l-25 -5 24 18 c43 33 6 51 -46 23 -12 -7 -29 -12
-37 -12 -9 0 -25 -5 -35 -12 -21 -13 -56 -4 -46 12 3 5 14 10 23 10 15 0 15
-2 2 -10 -13 -9 -13 -10 1 -10 8 0 25 9 36 20 15 13 23 16 26 7 3 -8 12 -5 28
10 13 12 35 26 49 32 22 8 22 10 5 10 -12 1 -26 -4 -33 -11 -6 -6 -15 -8 -19
-4 -4 4 1 12 12 18 19 11 19 11 0 19 -17 6 -16 8 8 8 16 1 26 -3 22 -9 -8 -13
8 -13 40 2 14 6 25 18 25 25 0 8 5 11 12 7 6 -4 8 -3 5 3 -9 14 11 29 51 38
17 3 32 12 32 18 0 8 4 7 12 -1 7 -7 18 -12 25 -12 17 0 17 27 1 33 -8 3 -6 6
4 6 10 1 22 10 28 21 6 11 16 20 23 20 7 0 6 -4 -3 -10 -10 -6 -11 -10 -2 -10
6 0 12 -5 12 -11 0 -5 -6 -7 -12 -3 -10 5 -10 4 -2 -5 9 -10 17 -10 32 -2 10
6 22 7 26 4 8 -8 57 37 51 47 -3 4 2 13 10 20 13 11 15 9 13 -11 -2 -13 -7
-28 -13 -32 -5 -5 0 -5 12 -2 30 8 54 -6 27 -16 -18 -7 -18 -8 1 -8 11 0 29 4
40 8 17 7 17 8 -8 15 -16 4 -25 11 -21 17 4 8 9 7 14 -1 5 -9 13 -9 25 -3 16
9 16 10 0 16 -12 5 -14 13 -10 28 6 19 4 21 -11 14 -18 -7 -68 -10 -89 -4 -5
1 -17 3 -25 3 -8 1 -14 9 -12 18 1 9 -2 19 -8 23 -5 3 -11 3 -11 -2z m922
-160 c-17 21 -8 22 23 2 36 -24 66 -27 59 -8 -5 13 -2 15 11 10 10 -4 22 -7
28 -7 5 0 8 -10 6 -22 -3 -21 -8 -23 -71 -23 -50 -1 -66 2 -63 11 3 9 -1 11
-11 7 -10 -4 -14 -2 -10 4 4 6 0 16 -8 23 -17 14 -17 14 -20 -17 -1 -14 3 -23
11 -23 7 0 12 -9 11 -20 -1 -11 -6 -20 -11 -20 -6 0 -5 -5 1 -11 13 -13 33 -4
33 16 0 9 6 12 15 9 8 -4 15 -1 15 5 0 6 7 8 16 4 14 -5 14 -7 -2 -16 -11 -6
-24 -16 -31 -22 -6 -7 -30 -15 -52 -19 -28 -4 -41 -11 -41 -22 0 -12 6 -15 21
-11 15 4 19 3 11 -5 -12 -12 -55 -1 -47 13 4 5 0 9 -8 9 -8 0 -17 -7 -21 -15
-7 -19 -33 -20 -33 0 0 8 4 12 8 10 3 -3 12 2 19 10 7 8 16 13 20 10 5 -3 20
0 34 6 20 10 23 15 15 26 -9 10 -8 13 5 13 9 0 16 5 16 10 0 15 -36 12 -50 -5
-7 -8 -20 -15 -29 -15 -9 0 -23 -6 -30 -12 -9 -9 -12 -9 -7 -1 3 6 27 21 52
33 32 16 42 26 35 33 -7 7 -17 5 -31 -8 -11 -10 -20 -14 -20 -9 0 15 40 35 53
28 7 -4 9 -4 5 1 -4 4 -3 16 2 26 10 17 12 17 48 -4 29 -17 34 -18 23 -4z"/>
<path d="M4775 409 c-16 -6 -14 -8 13 -8 17 -1 32 -5 32 -10 0 -5 -8 -7 -18
-4 -10 2 -25 -3 -33 -13 -13 -16 -12 -16 9 -5 12 6 22 8 21 4 -4 -24 4 -33 28
-33 26 0 26 1 7 15 -19 14 -18 14 4 15 12 0 22 -4 22 -8 0 -5 9 -19 20 -32 11
-13 17 -26 12 -29 -4 -3 -7 -12 -6 -18 1 -7 2 -17 3 -23 0 -5 11 -10 24 -10
13 0 32 -7 43 -15 18 -14 17 -14 -9 -4 -34 15 -44 6 -28 -28 10 -21 9 -28 -1
-35 -10 -7 -9 -12 6 -23 29 -22 12 -29 -25 -11 -37 19 -42 20 -34 6 8 -13 -1
-13 -24 2 -15 9 -17 16 -10 30 7 13 6 18 -3 18 -7 1 -26 11 -42 24 -27 23 -28
24 -8 30 18 6 28 44 12 47 -3 0 -13 2 -24 4 -13 3 -15 0 -8 -7 12 -12 5 -38
-10 -38 -5 0 -7 4 -4 9 3 5 -10 12 -29 15 -20 4 -34 10 -31 14 2 4 -10 8 -27
9 l-32 2 22 -19 c13 -10 31 -16 40 -14 11 2 37 -13 63 -37 39 -35 41 -38 17
-29 -16 5 -33 8 -38 4 -5 -3 -9 -2 -8 3 4 23 -3 33 -26 33 -14 0 -25 4 -25 9
0 4 -12 6 -26 3 -19 -3 -26 0 -30 15 -4 15 -12 18 -40 15 -29 -4 -33 -2 -28
12 5 14 2 16 -19 11 -20 -5 -25 -3 -24 12 1 10 -4 17 -12 15 -7 -2 -22 5 -32
14 -11 10 -19 12 -19 6 0 -7 -7 -12 -15 -12 -8 0 -15 5 -15 10 0 6 -7 10 -15
10 -7 0 -19 8 -24 18 -7 12 -10 13 -11 3 0 -12 -3 -12 -17 1 -33 28 -42 30
-38 8 4 -23 -5 -26 -23 -8 -10 10 -15 10 -21 -1 -5 -7 -10 -9 -12 -4 -2 6 -17
13 -33 17 -25 6 -28 5 -23 -13 7 -29 -5 -26 -24 4 l-15 26 -34 -37 c-19 -21
-27 -35 -18 -32 8 4 28 0 44 -8 27 -14 27 -14 11 4 -9 10 -14 22 -10 25 9 10
25 9 19 -1 -2 -4 6 -9 19 -10 13 -1 27 3 30 8 3 5 11 7 18 5 30 -11 67 -13 72
-4 4 5 13 9 21 9 8 0 13 -4 10 -9 -3 -5 1 -12 10 -15 8 -3 12 -2 9 4 -3 6 -1
10 4 10 6 0 11 -4 11 -10 0 -5 8 -10 18 -10 16 -1 16 -1 -1 -14 -15 -12 -16
-15 -2 -26 13 -11 14 -10 9 4 -7 18 3 21 26 6 13 -9 13 -10 0 -11 -10 0 -8 -3
5 -9 30 -13 39 -12 26 4 -9 11 -8 15 5 20 19 7 37 -2 28 -15 -3 -5 0 -8 7 -7
6 2 13 -2 15 -7 2 -6 -4 -11 -13 -12 -62 -6 -90 -6 -101 1 -7 4 -17 4 -22 1
-6 -3 -22 2 -38 13 -15 11 -36 22 -47 25 -20 5 -20 5 1 6 11 0 24 -3 30 -9 14
-14 35 3 24 20 -8 12 -10 11 -10 -5 -1 -18 -2 -18 -13 -4 -7 10 -24 15 -42 14
-17 -1 -42 -3 -57 -3 -16 -1 -28 -6 -28 -11 0 -8 81 -33 97 -29 13 3 63 -24
63 -34 0 -5 12 -7 28 -6 18 2 26 -1 24 -10 -1 -8 6 -11 23 -8 14 3 25 0 25 -5
0 -5 5 -9 11 -9 8 0 8 4 0 14 -10 12 -8 17 10 26 19 11 21 10 15 -5 -6 -16 -5
-16 16 -3 13 9 23 20 23 26 0 6 4 14 9 19 5 4 6 3 2 -4 -3 -6 1 -16 9 -20 8
-5 17 -20 20 -32 5 -28 1 -24 50 -50 22 -11 33 -21 25 -21 -8 0 -24 7 -34 15
-11 8 -29 15 -40 15 -20 -1 -20 -2 -3 -14 22 -17 22 -25 -2 -19 -23 6 -36 43
-15 43 10 0 11 6 5 22 -9 24 -30 36 -32 19 -1 -6 -3 -15 -4 -21 -1 -5 -3 -14
-4 -18 -1 -11 -91 -11 -91 0 0 4 -10 8 -22 7 -22 0 -22 -1 -3 -9 18 -8 18 -9
2 -9 -11 -1 -21 8 -24 19 -5 21 -33 28 -33 9 0 -5 -5 -7 -10 -4 -13 8 -42 -14
-35 -25 3 -5 1 -11 -5 -15 -5 -3 -10 1 -10 9 0 8 5 18 10 21 21 13 9 21 -26
17 -23 -3 -32 -7 -24 -12 7 -5 19 -6 25 -3 9 3 11 -4 7 -23 -4 -24 -2 -26 14
-20 22 10 25 10 89 7 40 -2 46 -4 28 -11 -13 -5 -35 -5 -55 1 -18 5 -33 9 -34
9 -1 0 -1 -11 -1 -25 0 -14 3 -25 8 -25 5 0 9 5 9 10 0 7 6 7 20 0 14 -7 18
-18 15 -41 -3 -25 -1 -28 11 -18 11 9 18 8 31 -2 10 -8 14 -9 10 -2 -4 6 -2
15 4 18 5 4 8 13 5 20 -3 9 9 7 42 -5 26 -10 48 -25 50 -33 2 -8 12 -17 24
-20 11 -3 17 -10 14 -16 -4 -5 -1 -13 5 -17 8 -4 7 -9 -2 -15 -9 -6 5 -9 38
-9 28 0 55 5 59 11 4 8 9 7 15 -2 6 -11 11 -11 20 -2 9 9 5 16 -19 30 -18 10
-32 21 -32 26 0 11 12 8 31 -9 16 -14 20 -14 43 1 14 9 31 15 38 12 8 -4 5 -8
-9 -12 -24 -8 -37 -31 -22 -40 5 -4 8 -1 7 7 -2 7 3 13 10 12 6 -1 28 -2 48
-2 22 -1 33 -6 29 -13 -9 -14 26 -7 43 9 7 6 22 12 32 12 10 0 25 3 34 6 9 3
16 1 16 -5 0 -6 -14 -11 -32 -11 -35 0 -33 -9 3 -14 13 -2 32 -7 42 -11 21 -9
51 1 42 15 -3 5 -2 10 3 10 5 0 9 7 9 16 0 15 -1 15 -12 0 -16 -21 -47 -22
-38 0 4 10 -1 17 -16 21 -12 3 -21 13 -21 25 0 14 5 18 16 14 9 -3 18 -6 20
-6 2 0 4 -6 4 -14 0 -8 5 -18 12 -22 8 -5 9 -2 5 9 -8 22 0 21 54 -5 24 -12
52 -21 62 -20 9 0 15 -3 12 -9 -4 -5 -1 -9 6 -9 7 0 10 -3 7 -6 -4 -3 -16 -1
-27 6 -23 12 -29 -1 -8 -18 15 -12 244 -16 251 -3 7 11 -22 23 -36 14 -7 -4
-8 -1 -3 7 6 10 4 12 -8 7 -11 -4 -17 -1 -17 9 0 11 6 14 23 8 12 -3 27 -11
34 -16 7 -5 17 -7 22 -3 6 3 8 0 5 -8 -3 -9 3 -16 18 -19 32 -7 186 -8 170 -2
-6 3 -10 10 -6 15 3 5 -4 9 -14 9 -11 0 -25 6 -31 14 -6 8 -21 16 -32 19 -16
4 -20 1 -17 -16 2 -14 10 -21 21 -21 9 1 17 -2 17 -7 0 -5 -5 -9 -12 -9 -15 0
-78 42 -78 53 0 4 -10 3 -22 -3 -23 -11 -23 -11 -3 5 20 16 20 16 -4 36 -14
11 -33 18 -42 16 -14 -4 -16 0 -13 20 6 30 -12 54 -33 46 -11 -4 -14 -3 -9 6
5 8 1 14 -13 18 -12 3 -21 9 -21 14 0 15 15 10 40 -11 13 -11 25 -18 27 -16 7
7 -17 46 -28 46 -6 0 -8 4 -4 10 9 15 34 0 37 -23 2 -12 13 -26 26 -32 12 -5
22 -13 22 -18 0 -5 -10 -5 -22 -1 -23 7 -23 6 -5 -14 11 -12 26 -18 35 -15 13
4 12 1 -3 -11 -11 -10 -14 -15 -7 -11 6 3 12 1 12 -4 0 -6 7 -11 15 -11 9 0
21 -12 27 -28 8 -20 12 -23 15 -10 4 15 7 15 40 2 36 -16 63 -13 63 6 0 5 -6
10 -14 10 -8 0 -16 7 -20 15 -4 12 -2 13 17 2 12 -6 26 -18 30 -24 11 -18 40
-17 34 1 -4 10 0 14 13 13 15 -1 17 -5 8 -20 -9 -18 -7 -19 15 -13 17 4 27 1
31 -9 3 -8 17 -15 31 -15 14 0 25 -4 25 -10 0 -14 -15 -13 -57 5 -43 18 -46
18 -37 3 5 -9 2 -8 -10 1 -17 14 -76 23 -76 12 0 -3 22 -16 49 -28 39 -17 67
-21 144 -21 96 1 97 1 91 24 -5 19 -3 22 16 17 16 -4 18 -8 9 -14 -18 -11 -9
-17 31 -25 24 -5 31 -4 26 4 -4 7 -1 12 8 12 8 0 17 -4 20 -9 3 -5 41 -9 83
-10 47 -1 73 2 65 8 -9 5 -3 8 17 7 17 -1 31 -4 31 -8 0 -5 5 -8 11 -8 6 0 9
9 6 20 -3 11 -2 20 3 20 4 0 10 -9 13 -19 4 -18 14 -20 136 -18 l132 1 -3 48
c-2 35 -7 47 -16 43 -7 -3 -10 0 -7 5 7 11 -31 22 -84 25 -20 1 -37 3 -38 4
-7 3 39 41 50 41 8 0 7 -3 -3 -10 -18 -11 -10 -20 21 -24 13 -1 34 -8 46 -14
30 -17 33 -15 33 14 0 19 -4 25 -14 21 -13 -5 -76 19 -76 28 0 6 33 -6 48 -18
8 -6 12 -6 12 1 0 6 7 9 15 6 8 -4 15 -1 15 5 0 6 -9 11 -21 11 -11 0 -18 4
-14 10 3 5 11 7 18 4 9 -3 14 8 15 35 3 51 -13 60 -101 58 -37 -1 -67 1 -67 5
0 3 -16 12 -36 18 -19 7 -33 14 -30 17 3 3 26 -2 51 -12 26 -9 49 -14 52 -11
4 3 1 6 -6 6 -7 0 -9 4 -6 10 4 6 -1 7 -11 3 -10 -3 -15 -2 -12 3 3 5 -10 10
-29 11 -19 1 -42 8 -51 15 -13 11 -15 11 -10 -4 8 -19 -25 -31 -60 -21 -12 3
-22 1 -22 -5 0 -14 27 -23 45 -15 9 3 15 2 14 -3 -2 -14 13 -54 20 -54 4 0 8
-6 8 -14 0 -11 -5 -11 -25 0 -14 7 -30 10 -35 7 -6 -4 -7 4 -4 19 5 17 2 28
-6 31 -17 7 -44 -9 -34 -20 5 -4 12 -1 16 6 6 9 11 10 15 2 4 -6 2 -11 -4 -11
-6 0 -8 -4 -5 -10 3 -6 -3 -10 -15 -10 -12 0 -19 4 -15 9 3 5 0 13 -6 17 -8 5
-8 8 0 13 8 5 6 13 -5 27 -8 10 -13 13 -9 6 3 -6 -1 -15 -10 -18 -14 -6 -14
-8 2 -27 17 -20 17 -20 0 -14 -13 5 -17 3 -15 -5 3 -7 17 -14 31 -16 15 -2 27
-7 27 -12 0 -5 -14 -8 -30 -6 -25 3 -28 1 -19 -10 6 -8 29 -19 50 -24 27 -7
37 -15 33 -25 -5 -11 -13 -9 -45 10 -21 14 -48 25 -59 25 -12 0 -34 7 -50 15
-17 9 -30 13 -30 9 0 -4 -7 -1 -15 6 -9 7 -18 10 -22 6 -3 -3 -1 -6 6 -6 8 0
11 -7 7 -15 -3 -9 3 -19 15 -25 11 -6 17 -15 14 -20 -3 -5 -1 -11 5 -15 16
-10 12 -25 -6 -25 -10 0 -14 -6 -11 -15 8 -19 -9 -29 -20 -12 -4 7 -16 16 -26
20 -9 4 -16 10 -16 14 4 17 -14 43 -25 36 -6 -3 0 5 13 20 22 24 22 27 7 48
-10 15 -12 27 -6 34 11 13 -28 15 -45 2 -5 -4 -19 -14 -30 -22 -18 -12 -17
-13 16 -6 35 8 36 8 25 -15 -6 -13 -12 -19 -14 -14 -5 14 -32 12 -32 -2 0 -6
-9 -2 -20 10 -21 22 -41 21 -72 -6 -22 -18 -23 -42 -3 -42 8 0 15 -4 15 -9 0
-5 14 -14 31 -20 39 -13 42 -14 34 -1 -4 6 7 10 27 9 26 0 29 -2 13 -8 -19 -8
-19 -8 0 -19 11 -6 16 -14 12 -18 -4 -4 0 -16 10 -26 15 -16 5 -27 -11 -11
-11 11 -45 14 -51 4 -3 -6 5 -17 17 -25 25 -18 8 -22 -23 -6 -14 8 -18 17 -13
35 4 15 2 25 -5 25 -6 0 -8 7 -5 15 4 10 0 15 -15 15 -12 0 -21 4 -21 10 0 5
-7 7 -15 4 -22 -9 -18 -22 13 -39 l27 -15 -30 6 c-16 4 -35 11 -41 16 -6 4
-18 6 -26 3 -9 -4 -15 0 -15 9 0 8 4 13 9 10 5 -3 21 0 37 7 l29 13 -35 28
c-31 24 -33 28 -14 28 11 0 20 6 18 13 -1 7 7 11 23 10 23 -3 22 -1 -7 14 -32
16 -43 33 -23 33 6 0 10 -4 10 -9 0 -5 9 -11 20 -14 11 -3 18 -1 14 4 -3 5 0
9 6 9 6 0 8 5 5 10 -4 6 -15 8 -25 5 -10 -3 -24 0 -31 7 -8 7 -20 13 -26 14
-30 2 -34 5 -28 14 3 6 -1 7 -10 4 -9 -4 -22 1 -31 12 -15 18 -15 18 -10 1 3
-10 6 -21 6 -23 0 -2 6 -4 13 -4 6 0 21 -8 32 -16 19 -16 19 -16 -5 -10 -22 6
-22 5 -7 -4 10 -7 24 -9 32 -7 7 3 15 -3 18 -14 3 -13 1 -17 -6 -12 -7 4 -21
9 -32 10 -11 2 -25 9 -30 17 -11 14 -54 32 -69 27 -5 -1 -5 4 1 11 9 10 4 13
-20 15 -24 2 -28 0 -17 -7 8 -5 11 -10 5 -11 -5 0 -20 -2 -32 -5 -13 -2 -23 0
-23 5 0 5 -10 12 -22 16 l-23 8 23 4 c12 2 22 9 22 14 0 5 7 9 15 9 8 0 15 5
15 11 0 5 -4 7 -10 4 -5 -3 -10 -1 -10 4 0 6 -7 11 -15 11 -8 0 -15 -4 -15
-10 0 -5 5 -10 11 -10 5 0 7 -5 4 -11 -4 -6 -13 -8 -21 -5 -7 3 -16 1 -18 -3
-3 -5 -17 -6 -31 -3 -15 2 -25 0 -25 -7 0 -6 -5 -11 -11 -11 -5 0 -7 5 -4 10
3 6 1 10 -6 10 -8 0 -8 4 1 15 7 8 10 15 7 15 -3 0 -12 2 -19 5 -15 6 -19 -31
-5 -52 4 -7 1 -16 -9 -21 -15 -8 -15 -10 2 -16 9 -4 21 -2 24 5 6 8 9 8 15 -1
4 -7 -2 -14 -16 -17 -22 -6 -22 -7 -3 -14 10 -4 28 -8 39 -8 18 0 18 1 3 9
-10 6 -14 18 -11 30 3 11 10 17 16 13 7 -4 8 0 3 12 -5 15 -4 16 9 5 15 -12
15 -14 0 -22 -19 -11 -11 -28 13 -28 13 0 14 2 4 9 -11 7 -11 9 2 14 9 4 15 2
13 -4 -2 -13 19 -26 55 -34 17 -3 25 -10 22 -18 -3 -8 7 -19 22 -25 16 -8 24
-18 20 -27 -4 -10 3 -17 22 -21 47 -10 48 -12 5 -13 -24 -1 -43 4 -43 10 0 5
-5 7 -10 4 -18 -11 -40 15 -34 39 4 18 -2 25 -32 39 -20 10 -38 16 -41 14 -2
-2 10 -10 27 -17 38 -16 41 -41 3 -34 -15 3 -34 10 -42 15 -12 8 -10 8 8 3 14
-4 21 -2 18 4 -4 5 -24 9 -45 9 -44 0 -112 29 -112 48 0 13 -22 26 -43 24 -7
0 -2 -4 11 -9 12 -5 22 -14 22 -20 0 -6 -12 -4 -30 5 -36 19 -46 19 -31 1 7
-8 27 -17 46 -20 19 -4 37 -12 41 -18 5 -8 2 -9 -9 -5 -10 3 -17 2 -17 -3 0
-15 -64 9 -79 30 -7 11 -18 20 -24 20 -6 0 -22 11 -36 24 -27 25 -76 41 -84
28 -10 -16 29 -47 63 -50 19 -1 37 -7 38 -12 2 -6 9 -7 14 -4 7 4 8 2 4 -5 -4
-6 0 -14 9 -17 9 -4 14 -12 11 -19 -3 -8 12 -21 40 -34 46 -22 56 -32 27 -26
-62 13 -73 17 -73 29 0 7 -7 19 -15 26 -15 13 -20 5 -16 -27 3 -24 -64 -10
-74 14 -4 13 -3 14 10 3 8 -7 15 -9 15 -5 0 4 7 2 15 -5 13 -11 15 -8 15 13 0
14 -5 29 -12 33 -6 4 -8 3 -4 -4 9 -15 -15 -21 -40 -9 -14 6 -28 5 -42 -2 -12
-6 -23 -7 -26 -2 -3 5 3 11 13 14 10 2 20 17 23 32 5 25 1 29 -33 43 -24 9
-39 21 -38 31 0 10 2 12 6 3 2 -6 9 -9 14 -6 6 3 17 0 25 -7 12 -10 13 -9 9 4
-8 21 -53 28 -70 11 -9 -9 -16 -10 -20 -4 -11 18 -40 28 -60 19z"/>
<path d="M3460 358 c0 -4 -7 -4 -17 -1 -11 4 -14 3 -9 -6 5 -8 3 -11 -5 -10
-8 2 -27 0 -44 -5 -27 -7 -28 -8 -10 -18 14 -8 20 -8 23 0 6 18 21 14 18 -5
-2 -10 -20 -23 -44 -31 -23 -7 -42 -20 -42 -28 0 -8 -3 -15 -7 -15 -5 -1 -21
-3 -36 -5 -16 -1 -34 -8 -41 -13 -7 -6 -15 -9 -18 -6 -2 3 -5 -1 -6 -8 0 -6
-4 -22 -7 -34 -8 -24 0 -28 29 -17 9 3 13 10 10 15 -3 5 0 9 6 9 7 0 9 -7 6
-16 -3 -9 -6 -18 -6 -20 0 -2 -6 -4 -14 -4 -8 0 -16 -5 -18 -10 -2 -6 -14 -12
-27 -15 -13 -2 -26 -7 -29 -10 -10 -9 49 -5 69 5 14 8 19 7 19 -1 0 -6 6 -9
14 -6 8 3 17 1 20 -6 3 -9 8 -8 15 3 6 8 11 11 11 5 0 -7 3 -7 8 0 10 14 55
39 47 26 -4 -7 4 -11 19 -11 14 0 26 5 26 10 0 6 -6 10 -14 10 -8 0 -18 5 -22
12 -5 7 0 9 14 6 12 -4 23 0 26 8 3 8 -1 11 -12 8 -9 -2 1 4 23 14 44 21 84
76 64 88 -7 4 -9 3 -6 -3 4 -6 0 -14 -8 -17 -8 -3 -14 -11 -13 -18 2 -7 -13
-15 -34 -18 -21 -4 -38 -3 -38 1 0 13 23 24 43 21 14 -3 17 1 11 22 -5 21 -3
25 10 20 9 -3 16 -2 16 4 0 5 -7 13 -15 16 -17 6 -37 -31 -27 -48 3 -5 0 -6
-6 -2 -10 6 -50 -10 -125 -51 -18 -9 -32 -12 -38 -6 -6 6 6 15 33 23 24 8 48
20 53 28 6 7 15 13 20 12 18 -4 38 0 32 6 -3 3 16 28 42 54 35 35 43 48 30 47
-11 -1 -19 -5 -19 -9z"/>
<path d="M3822 247 c9 -9 23 -14 31 -11 9 3 16 -3 20 -15 3 -12 13 -21 22 -21
9 0 13 -4 10 -10 -3 -5 1 -10 10 -10 9 0 22 -6 29 -12 12 -11 12 -16 -1 -30
-16 -18 -9 -24 20 -19 5 1 5 -3 2 -9 -4 -6 -12 -9 -17 -8 -6 2 -22 -7 -35 -20
-18 -18 -22 -27 -13 -36 9 -8 11 -7 8 4 -2 8 3 15 10 14 6 -1 23 -2 37 -2 14
-1 25 -8 25 -16 0 -9 -10 -13 -30 -12 -33 2 -40 -8 -12 -19 23 -9 130 -15 148
-8 10 4 6 12 -16 33 -17 15 -30 33 -30 40 0 6 -5 8 -10 5 -6 -4 -8 -10 -5 -15
3 -4 -4 -10 -14 -13 -11 -3 -22 1 -25 9 -3 8 -12 11 -21 8 -11 -5 -14 -2 -9
10 3 9 10 16 16 16 5 0 6 9 3 20 -7 23 2 25 28 5 11 -7 25 -11 33 -8 9 3 14
-2 15 -13 0 -11 3 -14 5 -7 4 8 26 10 67 7 46 -3 57 -1 45 7 -10 5 -18 17 -18
25 0 8 4 13 9 9 16 -9 24 15 11 30 -7 9 -8 15 -2 15 16 0 35 -29 28 -45 -3 -9
0 -15 9 -15 8 0 15 -4 15 -10 0 -5 7 -10 17 -10 15 0 15 1 -1 19 -15 16 -15
19 -1 24 13 6 20 -12 17 -44 -1 -3 13 -6 31 -7 27 -1 29 1 16 11 -9 7 -14 17
-12 24 2 6 -5 17 -17 23 -11 6 -18 15 -15 19 2 5 -3 15 -13 22 -9 7 -14 10
-10 5 9 -11 -19 -39 -32 -31 -7 4 -7 12 0 25 6 11 6 21 1 24 -13 9 -61 3 -61
-7 0 -5 10 -5 21 -2 22 7 22 7 2 -14 -12 -13 -19 -34 -18 -56 1 -31 -1 -33
-15 -20 -9 8 -21 15 -27 15 -15 0 -37 29 -29 38 4 4 12 -1 17 -11 12 -21 39
-23 39 -2 0 8 -4 15 -10 15 -5 0 -10 9 -10 20 0 12 -5 17 -14 14 -8 -3 -17 -1
-21 5 -3 6 -18 11 -33 10 l-27 -1 30 -13 c25 -11 27 -15 13 -20 -11 -4 -24 0
-34 10 -12 12 -19 13 -24 5 -10 -16 -70 -16 -80 0 -4 7 -15 10 -24 7 -11 -5
-16 -1 -16 13 0 11 -6 20 -12 20 -7 0 -24 3 -38 7 -23 6 -24 6 -8 -10z"/>
<path d="M3558 176 c-10 -7 -18 -19 -18 -27 0 -12 -2 -12 -9 0 -5 7 -13 11
-19 7 -6 -3 -13 -2 -16 2 -8 14 -57 1 -63 -16 -4 -8 1 -20 11 -27 14 -11 9
-12 -31 -10 -26 2 -42 1 -36 -3 17 -11 -3 -53 -22 -46 -11 5 -13 10 -5 19 8 9
4 12 -16 9 -14 -1 -29 -6 -32 -10 -4 -4 1 -4 11 -1 26 10 22 0 -21 -48 -7 -8
-12 -15 -10 -15 64 -9 115 -9 143 0 38 13 49 35 13 25 -20 -5 -21 -4 -5 5 9 6
21 9 25 6 4 -2 14 -1 22 4 12 7 12 10 -3 16 -9 3 -17 10 -17 15 0 6 9 5 20 -1
14 -8 20 -8 20 0 0 6 3 9 8 7 4 -3 8 6 8 19 1 13 -2 21 -7 18 -5 -3 -9 -1 -9
5 0 5 12 9 27 8 16 -1 28 3 28 11 0 6 3 12 8 12 4 0 10 0 14 0 3 0 -2 -9 -12
-20 -10 -11 -14 -20 -9 -20 5 0 2 -5 -6 -11 -11 -8 -8 -9 15 -4 24 5 28 4 18
-6 -7 -7 -13 -21 -13 -30 0 -23 -20 -35 -30 -19 -5 8 -9 3 -12 -13 -5 -23 -3
-24 24 -15 15 5 26 14 23 19 -3 4 6 11 20 15 13 3 22 10 19 15 -3 5 -10 6 -16
3 -7 -4 -8 -2 -4 5 5 8 13 7 29 -4 29 -21 35 -19 35 10 0 14 -4 25 -9 25 -14
0 -64 55 -61 68 4 16 -8 15 -30 -2z"/>
<path d="M4116 85 c7 -17 -7 -20 -23 -4 -8 8 -16 8 -30 0 -10 -6 -13 -11 -7
-11 6 0 22 -9 35 -21 21 -18 24 -19 27 -4 2 10 10 14 19 11 8 -3 17 -6 19 -6
2 0 4 -5 4 -11 0 -5 -4 -8 -9 -4 -5 3 -12 1 -16 -5 -10 -16 37 -29 63 -17 15
7 30 7 47 -1 38 -17 55 -15 55 8 0 11 5 20 11 20 5 0 7 5 4 10 -4 6 3 6 18 -1
13 -6 24 -18 23 -26 0 -9 5 -18 12 -20 7 -3 12 4 12 18 l0 22 21 -24 c17 -19
22 -21 29 -9 6 10 5 16 -3 19 -7 2 -20 10 -29 19 -10 8 -18 12 -18 8 0 -4 -15
2 -34 14 -33 20 -35 20 -45 3 -6 -10 -11 -13 -11 -6 0 6 -14 16 -31 22 -42 15
-42 14 -17 -11 l22 -22 -30 -8 c-32 -8 -98 8 -89 22 3 5 -3 14 -14 20 -17 9
-19 8 -15 -5z"/>
</g>
</svg>
