<?xml version="1.0" encoding="iso-8859-1"?>
<!-- Generator: Adobe Illustrator 16.0.0, SVG Export Plug-In . SVG Version: 6.00 Build 0)  -->
<!DOCTYPE svg PUBLIC "-//W3C//DTD SVG 1.1//EN" "http://www.w3.org/Graphics/SVG/1.1/DTD/svg11.dtd">
<svg xmlns="http://www.w3.org/2000/svg" xmlns:xlink="http://www.w3.org/1999/xlink" version="1.1" id="Capa_1" x="0px" y="0px" width="512px" height="512px" viewBox="0 0 573.75 573.75" style="enable-background:new 0 0 573.75 573.75;" xml:space="preserve">
<g>
	<path d="M411.188,191.25C407.362,86.062,353.812,0,286.875,0S166.388,86.062,162.562,191.25l0,0v19.125l0,0   c3.825,78.412,53.55,110.925,114.75,114.75v97.537c-11.475,3.825-19.125,15.301-19.125,26.775v95.625   c0,15.3,13.388,28.688,28.688,28.688s28.688-13.388,28.688-28.688v-95.625c0-13.388-7.65-22.95-19.125-26.775v-97.537   c61.2-3.825,110.925-36.338,114.75-114.75l0,0V191.25L411.188,191.25z M200.812,267.75L200.812,267.75   c-3.825-5.737-7.65-11.475-11.475-19.125h11.475V267.75z M200.812,229.5H183.6c-1.913-5.737-1.913-11.475-1.913-19.125h19.125   V229.5z M200.812,191.25h-19.125c0-5.737,0-13.388,1.913-19.125h17.212V191.25z M200.812,153h-15.3   c1.912-5.737,1.912-13.388,3.825-19.125h11.475V153z M200.812,114.75h-5.737c1.912-5.737,3.825-11.475,5.737-15.3V114.75z    M239.062,298.35c-7.65-1.912-13.388-5.737-21.038-11.475h21.038V298.35z M239.062,267.75h-19.125v-19.125h19.125V267.75z    M239.062,229.5h-19.125v-19.125h19.125V229.5z M239.062,191.25h-19.125v-19.125h19.125V191.25z M239.062,153h-19.125v-19.125   h19.125V153z M239.062,114.75h-19.125V95.625h19.125V114.75z M239.062,76.5h-19.125V63.112c1.913-1.912,1.913-3.825,3.825-5.737   h15.3V76.5z M277.312,306c-5.737,0-13.388-1.912-19.125-1.912v-17.213h19.125V306z M277.312,267.75h-19.125v-19.125h19.125V267.75z    M277.312,229.5h-19.125v-19.125h19.125V229.5z M277.312,191.25h-19.125v-19.125h19.125V191.25z M277.312,153h-19.125v-19.125   h19.125V153z M277.312,114.75h-19.125V95.625h19.125V114.75z M277.312,76.5h-19.125V57.375h19.125V76.5z M277.312,38.25h-19.125   V26.775c5.737-3.825,13.388-5.737,19.125-5.737V38.25z M372.938,99.45c1.912,5.737,3.825,9.562,5.737,15.3h-5.737V99.45z    M372.938,133.875h11.475c1.913,5.737,1.913,13.388,3.825,19.125h-15.3V133.875z M334.688,57.375h15.3   c1.913,1.913,1.913,3.825,3.825,5.737V76.5h-19.125V57.375z M334.688,95.625h19.125v19.125h-19.125V95.625z M334.688,133.875   h19.125V153h-19.125V133.875z M334.688,172.125h19.125v19.125h-19.125V172.125z M334.688,210.375h19.125V229.5h-19.125V210.375z    M334.688,248.625h19.125v19.125h-19.125V248.625z M315.562,304.088C309.825,306,302.175,306,296.438,306v-19.125h19.125V304.088z    M315.562,267.75h-19.125v-19.125h19.125V267.75z M315.562,229.5h-19.125v-19.125h19.125V229.5z M315.562,191.25h-19.125v-19.125   h19.125V191.25z M315.562,153h-19.125v-19.125h19.125V153z M315.562,114.75h-19.125V95.625h19.125V114.75z M315.562,76.5h-19.125   V57.375h19.125V76.5z M315.562,38.25h-19.125V19.125c5.737,1.913,13.388,3.825,19.125,5.737V38.25z M334.688,298.35v-11.475h19.125   h1.912C348.075,290.7,342.338,294.525,334.688,298.35z M372.938,269.663v-21.038h11.475   C380.588,256.275,376.763,263.925,372.938,269.663z M390.15,229.5h-17.213v-19.125h19.125   C392.062,218.025,390.15,223.763,390.15,229.5z M372.938,191.25v-19.125h17.213c0,5.737,1.912,13.388,1.912,19.125H372.938z" fill="#FFFFFF"/>
</g>
<g>
</g>
<g>
</g>
<g>
</g>
<g>
</g>
<g>
</g>
<g>
</g>
<g>
</g>
<g>
</g>
<g>
</g>
<g>
</g>
<g>
</g>
<g>
</g>
<g>
</g>
<g>
</g>
<g>
</g>
</svg>
