<?xml version="1.0" encoding="iso-8859-1"?>
<!-- Generator: Adobe Illustrator 16.0.0, SVG Export Plug-In . SVG Version: 6.00 Build 0)  -->
<!DOCTYPE svg PUBLIC "-//W3C//DTD SVG 1.1//EN" "http://www.w3.org/Graphics/SVG/1.1/DTD/svg11.dtd">
<svg xmlns="http://www.w3.org/2000/svg" xmlns:xlink="http://www.w3.org/1999/xlink" version="1.1" id="Capa_1" x="0px" y="0px" width="512px" height="512px" viewBox="0 0 478.125 478.125" style="enable-background:new 0 0 478.125 478.125;" xml:space="preserve">
<g>
	<g>
		<path d="M415.013,76.5c-43.987,40.163-70.763,97.538-70.763,162.562c0,65.025,26.775,122.4,70.763,162.562    c38.25-42.075,63.112-99.45,63.112-162.562S455.175,120.487,415.013,76.5z" fill="#FFFFFF"/>
		<path d="M63.112,76.5C24.862,118.575,0,175.95,0,239.062s22.95,118.575,63.112,162.562    c43.988-40.162,70.763-97.537,70.763-162.562C133.875,174.038,107.1,116.663,63.112,76.5z" fill="#FFFFFF"/>
		<path d="M401.625,63.112C359.55,24.862,302.175,0,239.062,0S118.575,24.862,76.5,63.112C124.312,107.1,153,168.3,153,239.062    s-28.688,131.963-76.5,175.95c42.075,40.162,99.45,63.112,162.562,63.112s120.487-24.862,162.562-63.112    c-47.812-43.987-76.5-105.188-76.5-175.95S353.812,107.1,401.625,63.112z" fill="#FFFFFF"/>
	</g>
</g>
<g>
</g>
<g>
</g>
<g>
</g>
<g>
</g>
<g>
</g>
<g>
</g>
<g>
</g>
<g>
</g>
<g>
</g>
<g>
</g>
<g>
</g>
<g>
</g>
<g>
</g>
<g>
</g>
<g>
</g>
</svg>
