<?xml version="1.0" encoding="iso-8859-1"?>
<!-- Generator: Adobe Illustrator 16.0.0, SVG Export Plug-In . SVG Version: 6.00 Build 0)  -->
<!DOCTYPE svg PUBLIC "-//W3C//DTD SVG 1.1//EN" "http://www.w3.org/Graphics/SVG/1.1/DTD/svg11.dtd">
<svg xmlns="http://www.w3.org/2000/svg" xmlns:xlink="http://www.w3.org/1999/xlink" version="1.1" id="Capa_1" x="0px" y="0px" width="512px" height="512px" viewBox="0 0 497.25 497.25" style="enable-background:new 0 0 497.25 497.25;" xml:space="preserve">
<g>
	<g>
		<circle cx="248.625" cy="277.312" r="9.562" fill="#FFFFFF"/>
		<path d="M411.188,128.138l22.95-22.95l13.388,13.388l13.387-13.388L420.75,65.025l-13.388,13.388L420.75,91.8l-22.95,22.95    c-36.337-34.425-86.062-55.462-139.612-57.375v-38.25h19.125V0h-57.375v19.125h19.125v38.25    C122.4,63.112,28.688,158.737,28.688,277.312c0,122.4,97.538,219.938,219.938,219.938c122.4,0,219.938-97.537,219.938-219.938    C468.562,219.938,447.525,168.3,411.188,128.138z M258.188,304.088v30.6c0,5.737-3.825,9.562-9.562,9.562    s-9.562-3.825-9.562-9.562v-30.6c-11.475-3.825-19.125-15.301-19.125-26.775s7.65-22.95,19.125-26.775v-107.1    c0-5.737,3.825-9.562,9.562-9.562s9.562,3.825,9.562,9.562v107.1c11.475,3.825,19.125,15.301,19.125,26.775    S269.662,300.263,258.188,304.088z" fill="#FFFFFF"/>
	</g>
</g>
<g>
</g>
<g>
</g>
<g>
</g>
<g>
</g>
<g>
</g>
<g>
</g>
<g>
</g>
<g>
</g>
<g>
</g>
<g>
</g>
<g>
</g>
<g>
</g>
<g>
</g>
<g>
</g>
<g>
</g>
</svg>
