<?xml version="1.0" encoding="utf-8"?>
<!-- Generator: Adobe Illustrator 16.0.0, SVG Export Plug-In . SVG Version: 6.00 Build 0)  -->
<!DOCTYPE svg PUBLIC "-//W3C//DTD SVG 1.1//EN" "http://www.w3.org/Graphics/SVG/1.1/DTD/svg11.dtd">
<svg version="1.1" id="Layer_1" xmlns="http://www.w3.org/2000/svg" xmlns:xlink="http://www.w3.org/1999/xlink" x="0px" y="0px"
	 width="1920px" height="1080px" viewBox="0 0 1920 1080" enable-background="new 0 0 1920 1080" xml:space="preserve">
<g>
	<path fill="#FFFFFF" d="M1755.007,543.382c19.055-43.337,14.795-88.375-11.559-101.091c-26.353-12.718-64.259,11.973-86.326,53.856
		l0,0l-3.739,7.748l0,0c-13.821,32.491-0.6,55.108,22.746,68.284l-19.066,39.512c-5.265-0.629-10.52,2.566-12.764,7.213
		l-18.69,38.738c-2.992,6.198-0.339,14.164,5.686,17.07c6.024,2.907,13.912,0.027,16.903-6.171l18.692-38.737
		c2.616-5.423,1.474-10.749-2.297-14.479l19.067-39.512c24.843,10.077,50.775,6.354,67.607-24.684l0,0L1755.007,543.382
		L1755.007,543.382z M1657.228,534.404L1657.228,534.404c-0.385-3.051-0.771-6.102-0.78-9.928l4.518,2.181L1657.228,534.404z
		 M1664.705,518.91l-6.778-3.271c0.368-2.687,1.49-5.011,2.986-8.111l7.529,3.634L1664.705,518.91z M1672.182,503.415l-7.531-3.633
		c1.122-2.324,2.616-5.423,4.492-7.384l6.776,3.27L1672.182,503.415z M1679.658,487.92l-6.024-2.907
		c1.874-1.961,3.369-5.061,5.245-7.021l4.518,2.181L1679.658,487.92z M1687.135,472.425l-2.26-1.09
		c1.875-1.961,3.75-3.922,5.25-5.107L1687.135,472.425z M1666.305,554.068c-2.639-2.229-4.149-4.869-6.041-8.646l8.284,3.997
		L1666.305,554.068z M1672.287,541.671l-7.531-3.633l3.739-7.747l7.529,3.633L1672.287,541.671z M1679.763,526.176l-7.529-3.633
		l3.739-7.748l7.528,3.634L1679.763,526.176z M1687.239,510.682l-7.529-3.634l3.739-7.748l7.529,3.634L1687.239,510.682z
		 M1694.717,495.186l-7.529-3.633l3.738-7.748l7.529,3.633L1694.717,495.186z M1702.194,479.691l-7.53-3.633l3.738-7.747l7.53,3.632
		L1702.194,479.691z M1709.67,464.197l-7.528-3.634l2.617-5.423c1.126-0.411,1.499-1.185,2.626-1.597l6.025,2.906L1709.67,464.197z
		 M1679.868,564.432c-2.258-1.089-4.897-3.316-7.157-4.406l3.366-6.974l7.528,3.634L1679.868,564.432z M1687.346,548.938
		l-7.53-3.634l3.738-7.748l7.528,3.633L1687.346,548.938z M1694.821,533.443l-7.528-3.634l3.737-7.747l7.529,3.632L1694.821,533.443
		z M1702.299,517.948l-7.529-3.634l3.738-7.747l7.529,3.632L1702.299,517.948z M1709.775,502.453l-7.529-3.633l3.738-7.747
		l7.529,3.633L1709.775,502.453z M1717.252,486.958l-7.528-3.634l3.737-7.747l7.529,3.633L1717.252,486.958z M1724.729,471.464
		l-7.529-3.635l3.738-7.746l7.528,3.634L1724.729,471.464z M1732.206,455.969l-7.528-3.634l2.243-4.648
		c3.006-0.459,6.392,0.22,8.649,1.31L1732.206,455.969z M1757.893,498.928c-0.369,2.687-0.363,4.599-0.732,7.287l-2.258-1.089
		L1757.893,498.928z M1751.164,512.873l4.517,2.181c-0.369,2.686-1.864,5.787-2.232,8.473l-6.022-2.906L1751.164,512.873
		L1751.164,512.873z M1751.058,474.617l6.023,2.906c0.38,1.138,0.006,1.913,0.385,3.051l-2.616,5.422l-7.53-3.633L1751.058,474.617z
		 M1743.58,490.112l7.531,3.633l-3.738,7.748l-7.53-3.634L1743.58,490.112z M1736.104,505.607l7.531,3.633l-3.739,7.747l-7.53-3.634
		L1736.104,505.607z M1728.627,521.102l7.53,3.634l-3.739,7.747l-7.529-3.634L1728.627,521.102z M1721.149,536.597l7.53,3.633
		l-3.737,7.747l-7.531-3.633L1721.149,536.597z M1713.672,552.092l7.531,3.633l-3.738,7.747l-7.53-3.633L1713.672,552.092z
		 M1695.301,570.925c-2.632-0.315-5.644-1.769-7.903-2.859l3.739-7.747l7.529,3.634L1695.301,570.925L1695.301,570.925z
		 M1702.404,556.205l-7.529-3.633l3.738-7.749l7.528,3.634L1702.404,556.205z M1709.881,540.71l-7.529-3.634l3.739-7.749
		l7.529,3.634L1709.881,540.71z M1717.357,525.215l-7.528-3.634l3.737-7.747l7.53,3.632L1717.357,525.215z M1724.834,509.72
		l-7.527-3.633l3.737-7.747l7.53,3.633L1724.834,509.72z M1732.312,494.226l-7.528-3.634l3.737-7.747l7.53,3.633L1732.312,494.226z
		 M1739.789,478.73l-7.528-3.634l3.737-7.747l7.529,3.634L1739.789,478.73z M1747.267,463.236l-7.529-3.634l3.737-7.747
		c1.886,1.866,4.523,4.094,6.408,5.958L1747.267,463.236z M1703.954,572.234l2.242-4.648l7.53,3.634l0.751,0.363
		C1710.72,571.678,1707.713,572.138,1703.954,572.234z M1724.621,567.879l4.11-8.521l4.519,2.18
		C1730.249,563.911,1727.248,566.281,1724.621,567.879z M1739.246,554.88l-6.775-3.271l3.737-7.747l7.53,3.634
		C1742.244,550.595,1740.368,552.557,1739.246,554.88z M1739.948,536.116l3.738-7.747l6.776,3.27
		c-1.121,2.324-1.864,5.786-2.986,8.111L1739.948,536.116z"/>
</g>
<g>
	<g>
		<path fill="#FFFFFF" d="M582.359,963.148l-68.646-37.004c-6.864-3.7-16.689-1.909-21.13,6.328l-7.4,13.729
			c-4.44,8.237-0.537,17.429,6.328,21.13l82.375,44.404c8.237,4.44,19.436,3.389,25.881-1.995l174.038-122.353l-26.708-39.202
			L582.359,963.148z"/>
		<path fill="#FFFFFF" d="M834.361,824.353l-8.022-11.412c-4.644-7.819-15.734-10.254-24.294-4.237l-42.796,30.088l28.081,39.942
			l42.796-30.086C837.312,841.891,839.006,832.172,834.361,824.353z"/>
	</g>
</g>
<g>
	<g>
		<path fill="#FFFFFF" d="M351.012,419.976l-57.099-27.741c-6.228-3.026-12.933-2.435-17.531,1.747
			c-2.047,1.572-3.057,3.648-4.599,4.182c-18.212-12.698-45.204-25.812-45.204-25.812l-72.672-35.308
			c7.062-14.535,17.683-33.754,29.401-47.31l1.572,2.047c0.532,1.541,2.104,3.588,3.172,6.673c2.641,5.131,5.28,10.264,9.995,16.405
			c11.538,15.872,26.665,29.636,45.352,38.715c30.107,14.627,57.903,7.601,78.372-8.119c0.504-1.038,2.552-2.61,6.645-5.753
			c1.572,2.047,2.106,3.588,3.677,5.635l-17.947,10.529l5.784,9.226l17.948-10.528c0.533,1.544,2.104,3.589,2.639,5.133
			l-18.451,11.566l5.781,9.227l17.949-10.529c0.534,1.542,2.107,3.587,2.64,5.132l-16.909,11.033l5.784,9.224l16.405-9.993
			c1.572,2.045,2.105,3.589,2.638,5.132l-16.403,9.994l5.783,9.226l18.452-11.566c1.039,0.504,2.078,1.009,3.115,1.513
			c4.153,2.018,7.268,3.531,10.382,5.044l-2.522,5.19c-1.009,2.077-3.561,4.686-6.111,7.296
			C363.946,422.41,358.28,423.506,351.012,419.976z"/>
		<path fill="#FFFFFF" d="M246.902,343.729c-17.65-8.575-31.205-20.294-40.665-35.156c-3.679-5.635-6.823-9.729-8.425-14.358
			c-1.067-3.085-1.602-4.626-3.173-6.675l-3.677-5.636c7.149-6.793,13.825-9.964,19.015-7.442
			c23.877,11.601,10.675,30.851,41.82,45.982c31.146,15.132,36.042-8.153,51.615-0.587c6.228,3.026,11.953,7.091,16.136,11.688
			c-3.056,3.649-5.607,6.259-5.607,6.259C296.023,350.913,272.855,356.338,246.902,343.729z"/>
		<path fill="#FFFFFF" d="M221.535,382.733c0,0,31.144,15.132,47.281,26.821c14.059,10.68,26.577,21.896,41.11,28.956l79.94,38.838
			l8.306,4.036c-13.32,8.927-30.852,10.676-46.424,3.11l-197.253-95.835c-11.419-5.547-16.224-19.431-10.675-30.851
			c0,0,2.018-4.153,5.043-10.381L221.535,382.733z"/>
		<path fill="#FFFFFF" d="M314.971,428.129c-11.421-5.549-22.869-13.677-33.814-22.844c0.504-1.038,1.008-2.077,2.55-2.61
			c0.504-1.039,3.085-1.067,5.162-0.059l57.1,27.743c11.42,5.547,21.21,3.888,29.397-2.399c4.094-3.145,7.654-7.832,9.167-10.945
			l2.521-5.19c7.268,3.531,10.382,5.044,10.382,5.044c17.649,8.573,24.589,28.625,16.014,46.275
			c-1.512,3.115-3.531,7.267-6.082,9.876l-12.458-6.052L314.971,428.129z"/>
	</g>
</g>
</svg>
