<?xml version="1.0" encoding="utf-8"?>
<!-- Generator: Adobe Illustrator 16.0.0, SVG Export Plug-In . SVG Version: 6.00 Build 0)  -->
<!DOCTYPE svg PUBLIC "-//W3C//DTD SVG 1.1//EN" "http://www.w3.org/Graphics/SVG/1.1/DTD/svg11.dtd">
<svg version="1.1" id="Layer_1" xmlns="http://www.w3.org/2000/svg" xmlns:xlink="http://www.w3.org/1999/xlink" x="0px" y="0px"
	 width="1920px" height="1080px" viewBox="0 0 1920 1080" enable-background="new 0 0 1920 1080" xml:space="preserve">
<g>
	<g>
		<polygon fill="#FFFFFF" points="1638.073,403.704 1607.874,376.596 1598.413,379.369 1600.277,388.068 1602.408,389.497 
			1633.726,411.655 		"/>
		<path fill="#FFFFFF" d="M1628.677,432.995c7.34,4.012,16.485,1.334,20.499-6.006s1.334-16.484-6.006-20.499l-3.059-1.672
			l-14.492,26.504L1628.677,432.995z"/>
		<polygon fill="#FFFFFF" points="1623.58,430.208 1625.698,426.334 1627.928,422.255 1592.374,407.846 1589.909,407.028 
			1581.69,409.948 1584.462,419.411 		"/>
		<polygon fill="#FFFFFF" points="1629.043,420.218 1630.827,416.956 1632.61,413.693 1600.885,391.313 1599.57,390.33 
			1590.052,394.659 1591.543,405.008 1593.081,405.584 		"/>
	</g>
</g>
<circle fill="#FFFFFF" cx="589.374" cy="884.349" r="23.396"/>
<g>
	<path fill="#FFFFFF" d="M547.969,198.518c-49.099,0-89.033,39.94-89.033,89.039c0,49.094,39.935,89.04,89.033,89.04
		c49.094,0,89.04-39.946,89.04-89.04C637.009,238.458,597.063,198.518,547.969,198.518z M557.088,362.297l-12.679-15.948
		c-0.72-0.895-1.771-1.771-2.916-2.561c11.686-9.972,21.152-26.408,24.881-33.435c0.958,0.249,1.928,0.377,2.875,0.18l23.818-4.959
		c0.272-0.059,0.504-0.222,0.772-0.32c3.269,4.583,9.077,13.346,12.277,21.558l-8.096,16.907
		C586.847,353.708,572.717,360.41,557.088,362.297z M524.814,217.399l29.236,3.966c1.011,0.14,2.167,0.012,3.363-0.197l13.41,31.519
		c-0.535,0.302-1.063,0.61-1.475,1.046l-16.692,17.406c-0.54,0.563-0.976,1.254-1.33,2.009l-49.511-7.573
		c-0.104-0.482-0.18-0.999-0.343-1.417l-5.343-14.043c-0.105-0.291-0.313-0.465-0.453-0.709
		C505.625,231.646,520.481,220.424,524.814,217.399z M490.031,297.477l11.029-23.278c0.424-0.871,0.679-1.957,0.859-3.089
		l48.675,7.445c0.087,0.546,0.145,1.092,0.348,1.58l10.884,26.455c0.046,0.099,0.134,0.181,0.192,0.285
		c-3.333,6.354-13.776,24.997-26.037,34.319c-0.116-0.036-0.238-0.094-0.354-0.117l-24.184-4.414
		c-14.078-11.395-20.461-31.53-22.244-38.105C489.508,298.231,489.822,297.924,490.031,297.477z M610.043,322.026
		c-3.671-8.259-9.136-16.338-12.127-20.484c0.395-0.808,0.674-1.656,0.708-2.533l0.976-27.697c0.035-0.732-0.087-1.493-0.278-2.271
		c4.384-2.445,11.679-6.929,17.261-12.498c4.286,9.473,6.749,19.95,6.749,31.013c0,10.53-2.19,20.566-6.11,29.667L610.043,322.026z
		 M614.01,251.322c-5.116,5.674-12.94,10.483-17.412,12.963c-0.464-0.477-0.953-0.941-1.487-1.254L577.81,252.6
		c-0.383-0.232-0.849-0.336-1.29-0.476l-14.008-32.919c0.36-0.232,0.767-0.436,1.069-0.703l2.352-2.032
		c0.68-0.61,1.022-1.179,1.202-1.713C587.277,220.076,604.172,233.463,614.01,251.322z M509.731,222.736
		c-6.308,5.993-13.648,14.415-19.41,25.072c-0.221,0.104-0.441,0.128-0.657,0.273l-9.269,6.324
		C486.9,241.205,497.128,230.199,509.731,222.736z M472.764,290.472l10.657,8.532c0.087,0.064,0.18,0.07,0.268,0.134
		c1.493,5.958,7.643,27.053,22.447,40.242c-0.122,0.511-0.244,1.04-0.191,1.632l0.859,9.594
		C487.017,337.626,473.74,315.614,472.764,290.472z"/>
</g>
</svg>
